<svg width="221" height="221" viewBox="0 0 221 221" fill="none" xmlns="http://www.w3.org/2000/svg">
<circle cx="110.5" cy="110.5" r="110.5" fill="#D868FF"/>
<path d="M61.9159 104.572L64.9959 89.1715H78.6359L75.5559 104.572H72.7179L75.4239 90.8875L75.9299 91.5915H66.6239L67.4379 90.8875L64.7539 104.572H61.9159ZM86.6963 104.726C85.7137 104.726 84.863 104.55 84.1443 104.198C83.4257 103.831 82.883 103.296 82.5163 102.592C82.1497 101.873 81.981 100.986 82.0103 99.9295C82.0397 98.4629 82.3037 97.1869 82.8023 96.1015C83.301 95.0162 83.9977 94.1802 84.8923 93.5935C85.8017 92.9922 86.8797 92.6915 88.1263 92.6915C89.0943 92.6915 89.967 92.8969 90.7443 93.3075C91.5217 93.7035 92.1377 94.2902 92.5923 95.0675C93.0617 95.8302 93.2963 96.7542 93.2963 97.8395C93.2963 98.8369 93.1277 99.7535 92.7903 100.59C92.4677 101.426 92.0057 102.152 91.4043 102.768C90.803 103.384 90.099 103.868 89.2923 104.22C88.5003 104.557 87.635 104.726 86.6963 104.726ZM78.7323 108.84L81.9223 92.8235H84.5403L84.0123 95.5075L83.2863 98.6315L82.8903 101.778L81.4823 108.84H78.7323ZM86.4763 102.372C87.2683 102.372 87.965 102.188 88.5663 101.822C89.1677 101.44 89.6443 100.92 89.9963 100.26C90.3483 99.5995 90.5243 98.8369 90.5243 97.9715C90.5243 97.0622 90.253 96.3435 89.7103 95.8155C89.1677 95.2875 88.405 95.0235 87.4223 95.0235C86.645 95.0235 85.9483 95.2142 85.3323 95.5955C84.731 95.9622 84.2543 96.4755 83.9023 97.1355C83.5503 97.7955 83.3743 98.5582 83.3743 99.4235C83.3743 100.333 83.6457 101.052 84.1883 101.58C84.731 102.108 85.4937 102.372 86.4763 102.372ZM100.718 104.726C99.5737 104.726 98.569 104.513 97.7037 104.088C96.853 103.648 96.193 103.046 95.7237 102.284C95.2544 101.506 95.0197 100.597 95.0197 99.5555C95.0197 98.2355 95.3204 97.0622 95.9217 96.0355C96.523 94.9942 97.3444 94.1802 98.3857 93.5935C99.4417 92.9922 100.644 92.6915 101.994 92.6915C103.152 92.6915 104.157 92.9042 105.008 93.3295C105.873 93.7402 106.54 94.3342 107.01 95.1115C107.479 95.8742 107.714 96.7835 107.714 97.8395C107.714 99.1449 107.413 100.318 106.812 101.36C106.21 102.401 105.382 103.222 104.326 103.824C103.284 104.425 102.082 104.726 100.718 104.726ZM100.894 102.372C101.686 102.372 102.382 102.188 102.984 101.822C103.585 101.44 104.062 100.92 104.414 100.26C104.766 99.5995 104.942 98.8369 104.942 97.9715C104.942 97.0622 104.67 96.3435 104.128 95.8155C103.585 95.2875 102.822 95.0235 101.84 95.0235C101.062 95.0235 100.366 95.2142 99.7497 95.5955C99.1484 95.9622 98.6717 96.4755 98.3197 97.1355C97.9677 97.7955 97.7917 98.5582 97.7917 99.4235C97.7917 100.348 98.063 101.074 98.6057 101.602C99.1484 102.115 99.911 102.372 100.894 102.372ZM115.157 104.726C113.998 104.726 112.979 104.513 112.099 104.088C111.233 103.648 110.566 103.046 110.097 102.284C109.627 101.506 109.393 100.597 109.393 99.5555C109.393 98.2355 109.693 97.0622 110.295 96.0355C110.896 94.9942 111.725 94.1802 112.781 93.5935C113.837 92.9922 115.054 92.6915 116.433 92.6915C117.621 92.6915 118.64 92.9262 119.491 93.3955C120.356 93.8502 121.023 94.5322 121.493 95.4415L119.139 96.6515C118.875 96.0942 118.493 95.6835 117.995 95.4195C117.511 95.1555 116.917 95.0235 116.213 95.0235C115.45 95.0235 114.761 95.2142 114.145 95.5955C113.529 95.9622 113.045 96.4755 112.693 97.1355C112.341 97.7955 112.165 98.5582 112.165 99.4235C112.165 100.333 112.436 101.052 112.979 101.58C113.521 102.108 114.291 102.372 115.289 102.372C115.934 102.372 116.535 102.24 117.093 101.976C117.65 101.712 118.119 101.301 118.501 100.744L120.525 102.108C119.982 102.929 119.234 103.574 118.281 104.044C117.327 104.498 116.286 104.726 115.157 104.726ZM124.614 104.572L126.594 94.4955L127.1 95.1555H122.37L122.832 92.8235H133.854L133.37 95.1555H128.574L129.344 94.4955L127.364 104.572H124.614ZM138.831 104.726C137.687 104.726 136.682 104.513 135.817 104.088C134.966 103.648 134.306 103.046 133.837 102.284C133.368 101.506 133.133 100.597 133.133 99.5555C133.133 98.2355 133.434 97.0622 134.035 96.0355C134.636 94.9942 135.458 94.1802 136.499 93.5935C137.555 92.9922 138.758 92.6915 140.107 92.6915C141.266 92.6915 142.27 92.9042 143.121 93.3295C143.986 93.7402 144.654 94.3342 145.123 95.1115C145.592 95.8742 145.827 96.7835 145.827 97.8395C145.827 99.1449 145.526 100.318 144.925 101.36C144.324 102.401 143.495 103.222 142.439 103.824C141.398 104.425 140.195 104.726 138.831 104.726ZM139.007 102.372C139.799 102.372 140.496 102.188 141.097 101.822C141.698 101.44 142.175 100.92 142.527 100.26C142.879 99.5995 143.055 98.8369 143.055 97.9715C143.055 97.0622 142.784 96.3435 142.241 95.8155C141.698 95.2875 140.936 95.0235 139.953 95.0235C139.176 95.0235 138.479 95.2142 137.863 95.5955C137.262 95.9622 136.785 96.4755 136.433 97.1355C136.081 97.7955 135.905 98.5582 135.905 99.4235C135.905 100.348 136.176 101.074 136.719 101.602C137.262 102.115 138.024 102.372 139.007 102.372ZM153.314 104.726C152.141 104.726 151.121 104.513 150.256 104.088C149.391 103.648 148.716 103.046 148.232 102.284C147.763 101.506 147.528 100.597 147.528 99.5555C147.528 98.2209 147.821 97.0402 148.408 96.0135C148.995 94.9869 149.794 94.1802 150.806 93.5935C151.833 92.9922 152.999 92.6915 154.304 92.6915C155.404 92.6915 156.357 92.8969 157.164 93.3075C157.971 93.7182 158.594 94.3122 159.034 95.0895C159.489 95.8522 159.716 96.7689 159.716 97.8395C159.716 98.1182 159.701 98.4042 159.672 98.6975C159.643 98.9909 159.599 99.2622 159.54 99.5115H149.574L149.882 97.6855H158.242L157.12 98.3015C157.237 97.5535 157.186 96.9302 156.966 96.4315C156.746 95.9329 156.394 95.5515 155.91 95.2875C155.426 95.0235 154.847 94.8915 154.172 94.8915C153.365 94.8915 152.661 95.0822 152.06 95.4635C151.473 95.8302 151.019 96.3582 150.696 97.0475C150.373 97.7222 150.212 98.5142 150.212 99.4235C150.212 100.377 150.483 101.11 151.026 101.624C151.583 102.137 152.441 102.394 153.6 102.394C154.26 102.394 154.891 102.291 155.492 102.086C156.093 101.866 156.592 101.565 156.988 101.184L158.132 103.098C157.516 103.64 156.783 104.051 155.932 104.33C155.096 104.594 154.223 104.726 153.314 104.726ZM39.4566 135.994C38.8699 135.994 38.2979 135.898 37.7406 135.708C37.1686 135.517 36.7139 135.268 36.3766 134.96L37.7406 132.958C37.9899 133.178 38.2686 133.354 38.5766 133.486C38.8992 133.632 39.2659 133.706 39.6766 133.706C40.1312 133.706 40.5346 133.581 40.8866 133.332C41.2532 133.097 41.6199 132.686 41.9866 132.1L43.0206 130.494L43.2846 130.208L49.7526 119.824H52.5026L44.4066 132.606C43.8639 133.456 43.3432 134.131 42.8446 134.63C42.3459 135.128 41.8252 135.48 41.2826 135.686C40.7546 135.891 40.1459 135.994 39.4566 135.994ZM42.4706 131.99L39.5886 119.824H42.3386L44.6486 129.966L42.4706 131.99ZM52.0366 131.572L54.3906 119.824H65.6546L63.3006 131.572H60.5506L62.5306 121.518L63.0366 122.156H55.9746L56.7666 121.518L54.7866 131.572H52.0366ZM74.1172 131.726C73.1345 131.726 72.2839 131.55 71.5652 131.198C70.8465 130.831 70.3039 130.296 69.9372 129.592C69.5705 128.873 69.4019 127.986 69.4312 126.93C69.4605 125.463 69.7245 124.187 70.2232 123.102C70.7219 122.016 71.4185 121.18 72.3132 120.594C73.2225 119.992 74.3005 119.692 75.5472 119.692C76.5152 119.692 77.3879 119.897 78.1652 120.308C78.9425 120.704 79.5585 121.29 80.0132 122.068C80.4826 122.83 80.7172 123.754 80.7172 124.84C80.7172 125.837 80.5486 126.754 80.2112 127.59C79.8886 128.426 79.4265 129.152 78.8252 129.768C78.2239 130.384 77.5199 130.868 76.7132 131.22C75.9212 131.557 75.0559 131.726 74.1172 131.726ZM66.1532 135.84L69.3432 119.824H71.9612L71.4332 122.508L70.7072 125.632L70.3112 128.778L68.9032 135.84H66.1532ZM73.8972 129.372C74.6892 129.372 75.3859 129.188 75.9872 128.822C76.5885 128.44 77.0652 127.92 77.4172 127.26C77.7692 126.6 77.9452 125.837 77.9452 124.972C77.9452 124.062 77.6739 123.344 77.1312 122.816C76.5885 122.288 75.8259 122.024 74.8432 122.024C74.0659 122.024 73.3692 122.214 72.7532 122.596C72.1519 122.962 71.6752 123.476 71.3232 124.136C70.9712 124.796 70.7952 125.558 70.7952 126.424C70.7952 127.333 71.0665 128.052 71.6092 128.58C72.1519 129.108 72.9145 129.372 73.8972 129.372ZM87.6326 131.726C86.6793 131.726 85.8066 131.52 85.0146 131.11C84.2373 130.699 83.6139 130.112 83.1446 129.35C82.6899 128.572 82.4626 127.641 82.4626 126.556C82.4626 125.558 82.6239 124.642 82.9466 123.806C83.2839 122.97 83.7533 122.244 84.3546 121.628C84.9559 121.012 85.6526 120.535 86.4446 120.198C87.2513 119.86 88.1313 119.692 89.0846 119.692C90.0673 119.692 90.9106 119.868 91.6146 120.22C92.3333 120.572 92.8759 121.107 93.2426 121.826C93.6093 122.53 93.7779 123.41 93.7486 124.466C93.7193 125.918 93.4553 127.194 92.9566 128.294C92.4579 129.379 91.7613 130.222 90.8666 130.824C89.9719 131.425 88.8939 131.726 87.6326 131.726ZM88.3366 129.372C89.1286 129.372 89.8253 129.188 90.4266 128.822C91.0279 128.44 91.5046 127.92 91.8566 127.26C92.2086 126.6 92.3846 125.837 92.3846 124.972C92.3846 124.062 92.1133 123.344 91.5706 122.816C91.0279 122.288 90.2653 122.024 89.2826 122.024C88.5053 122.024 87.8086 122.214 87.1926 122.596C86.5913 122.962 86.1146 123.476 85.7626 124.136C85.4106 124.796 85.2346 125.558 85.2346 126.424C85.2346 127.333 85.5059 128.052 86.0486 128.58C86.5913 129.108 87.3539 129.372 88.3366 129.372ZM91.2186 131.572L91.7466 128.888L92.4946 125.764L92.8686 122.618L93.4186 119.824H96.1686L93.8366 131.572H91.2186ZM97.562 131.572L99.916 119.824H105.57C106.875 119.824 107.88 120.058 108.584 120.528C109.288 120.997 109.64 121.679 109.64 122.574C109.64 123.556 109.207 124.356 108.342 124.972C107.491 125.573 106.355 125.874 104.932 125.874L105.218 125.236C106.465 125.236 107.396 125.456 108.012 125.896C108.628 126.321 108.936 126.988 108.936 127.898C108.936 129.042 108.474 129.944 107.55 130.604C106.626 131.249 105.328 131.572 103.656 131.572H97.562ZM100.598 129.57H103.722C104.543 129.57 105.181 129.408 105.636 129.086C106.105 128.763 106.34 128.33 106.34 127.788C106.34 127.362 106.193 127.054 105.9 126.864C105.607 126.658 105.137 126.556 104.492 126.556H101.192L100.598 129.57ZM101.544 124.73H104.426C105.159 124.73 105.746 124.576 106.186 124.268C106.641 123.96 106.868 123.556 106.868 123.058C106.868 122.632 106.714 122.324 106.406 122.134C106.098 121.928 105.636 121.826 105.02 121.826H102.138L101.544 124.73ZM109.445 131.55L110.061 129.24C110.164 129.254 110.259 129.269 110.347 129.284C110.435 129.298 110.516 129.306 110.589 129.306C111.117 129.306 111.557 129.093 111.909 128.668C112.261 128.228 112.569 127.634 112.833 126.886C113.097 126.123 113.346 125.265 113.581 124.312L114.681 119.824H124.185L121.831 131.572H119.081L121.105 121.386L121.633 122.156H116.023L116.749 121.342L115.979 124.488C115.686 125.676 115.385 126.724 115.077 127.634C114.769 128.543 114.424 129.306 114.043 129.922C113.662 130.538 113.229 131.007 112.745 131.33C112.261 131.638 111.689 131.792 111.029 131.792C110.75 131.792 110.494 131.77 110.259 131.726C110.01 131.682 109.738 131.623 109.445 131.55ZM131.518 131.726C130.345 131.726 129.325 131.513 128.46 131.088C127.595 130.648 126.92 130.046 126.436 129.284C125.967 128.506 125.732 127.597 125.732 126.556C125.732 125.221 126.025 124.04 126.612 123.014C127.199 121.987 127.998 121.18 129.01 120.594C130.037 119.992 131.203 119.692 132.508 119.692C133.608 119.692 134.561 119.897 135.368 120.308C136.175 120.718 136.798 121.312 137.238 122.09C137.693 122.852 137.92 123.769 137.92 124.84C137.92 125.118 137.905 125.404 137.876 125.698C137.847 125.991 137.803 126.262 137.744 126.512H127.778L128.086 124.686H136.446L135.324 125.302C135.441 124.554 135.39 123.93 135.17 123.432C134.95 122.933 134.598 122.552 134.114 122.288C133.63 122.024 133.051 121.892 132.376 121.892C131.569 121.892 130.865 122.082 130.264 122.464C129.677 122.83 129.223 123.358 128.9 124.048C128.577 124.722 128.416 125.514 128.416 126.424C128.416 127.377 128.687 128.11 129.23 128.624C129.787 129.137 130.645 129.394 131.804 129.394C132.464 129.394 133.095 129.291 133.696 129.086C134.297 128.866 134.796 128.565 135.192 128.184L136.336 130.098C135.72 130.64 134.987 131.051 134.136 131.33C133.3 131.594 132.427 131.726 131.518 131.726ZM139.328 131.572L141.682 119.824H144.41L143.464 124.598H149.382L150.328 119.824H153.078L150.746 131.572H147.996L148.92 126.93H143.002L142.078 131.572H139.328ZM154.431 131.572L156.785 119.824H159.557L157.951 127.788L165.937 119.824H168.555L166.201 131.572H163.407L165.057 123.586L157.071 131.572H154.431ZM175.883 131.726C174.71 131.726 173.691 131.513 172.825 131.088C171.96 130.648 171.285 130.046 170.801 129.284C170.332 128.506 170.097 127.597 170.097 126.556C170.097 125.221 170.391 124.04 170.977 123.014C171.564 121.987 172.363 121.18 173.375 120.594C174.402 119.992 175.568 119.692 176.873 119.692C177.973 119.692 178.927 119.897 179.733 120.308C180.54 120.718 181.163 121.312 181.603 122.09C182.058 122.852 182.285 123.769 182.285 124.84C182.285 125.118 182.271 125.404 182.241 125.698C182.212 125.991 182.168 126.262 182.109 126.512H172.143L172.451 124.686H180.811L179.689 125.302C179.807 124.554 179.755 123.93 179.535 123.432C179.315 122.933 178.963 122.552 178.479 122.288C177.995 122.024 177.416 121.892 176.741 121.892C175.935 121.892 175.231 122.082 174.629 122.464C174.043 122.83 173.588 123.358 173.265 124.048C172.943 124.722 172.781 125.514 172.781 126.424C172.781 127.377 173.053 128.11 173.595 128.624C174.153 129.137 175.011 129.394 176.169 129.394C176.829 129.394 177.46 129.291 178.061 129.086C178.663 128.866 179.161 128.565 179.557 128.184L180.701 130.098C180.085 130.64 179.352 131.051 178.501 131.33C177.665 131.594 176.793 131.726 175.883 131.726Z" fill="white"/>
</svg>
