<svg width="221" height="221" viewBox="0 0 221 221" fill="none" xmlns="http://www.w3.org/2000/svg">
<circle cx="110.5" cy="110.5" r="110.5" fill="#D868FF"/>
<path d="M69.9523 79.5L73.0323 64.1H75.3643L79.8743 75.386L78.6423 75.364L87.4203 64.1H89.8843L86.8044 79.5H84.0983L86.3203 68.28L86.9583 68.302L79.5223 77.74H78.2463L74.3523 68.28L74.9023 68.346L72.6803 79.5H69.9523ZM96.6799 79.654C95.5359 79.654 94.5313 79.4413 93.6659 79.016C92.8153 78.576 92.1553 77.9747 91.6859 77.212C91.2166 76.4347 90.9819 75.5253 90.9819 74.484C90.9819 73.164 91.2826 71.9907 91.8839 70.964C92.4853 69.9227 93.3066 69.1087 94.3479 68.522C95.4039 67.9207 96.6066 67.62 97.9559 67.62C99.1146 67.62 100.119 67.8327 100.97 68.258C101.835 68.6687 102.503 69.2627 102.972 70.04C103.441 70.8027 103.676 71.712 103.676 72.768C103.676 74.0733 103.375 75.2467 102.774 76.288C102.173 77.3293 101.344 78.1507 100.288 78.752C99.2466 79.3533 98.0439 79.654 96.6799 79.654ZM96.8559 77.3C97.6479 77.3 98.3446 77.1167 98.9459 76.75C99.5473 76.3687 100.024 75.848 100.376 75.188C100.728 74.528 100.904 73.7653 100.904 72.9C100.904 71.9907 100.633 71.272 100.09 70.744C99.5473 70.216 98.7846 69.952 97.8019 69.952C97.0246 69.952 96.3279 70.1427 95.7119 70.524C95.1106 70.8907 94.6339 71.404 94.2819 72.064C93.9299 72.724 93.7539 73.4867 93.7539 74.352C93.7539 75.276 94.0253 76.002 94.5679 76.53C95.1106 77.0433 95.8733 77.3 96.8559 77.3ZM118.916 79.5L116.54 73.824L118.982 72.746L122.128 79.5H118.916ZM114.164 74.704L114.582 72.548H118.542L118.124 74.704H114.164ZM119.114 73.912L116.474 73.626L121.204 67.752H124.24L119.114 73.912ZM106.508 79.5H103.12L108.972 72.526L111.018 73.824L106.508 79.5ZM114.032 79.5H111.282L113.614 67.752H116.386L114.032 79.5ZM113.064 74.704H109.126L109.566 72.548H113.482L113.064 74.704ZM108.51 73.912L105.848 67.752H108.73L111.106 73.626L108.51 73.912ZM124.172 79.5L126.526 67.752H129.254L128.308 72.526H134.226L135.172 67.752H137.922L135.59 79.5H132.84L133.764 74.858H127.846L126.922 79.5H124.172ZM145.127 79.654C143.983 79.654 142.979 79.4413 142.113 79.016C141.263 78.576 140.603 77.9747 140.133 77.212C139.664 76.4347 139.429 75.5253 139.429 74.484C139.429 73.164 139.73 71.9907 140.331 70.964C140.933 69.9227 141.754 69.1087 142.795 68.522C143.851 67.9207 145.054 67.62 146.403 67.62C147.562 67.62 148.567 67.8327 149.417 68.258C150.283 68.6687 150.95 69.2627 151.419 70.04C151.889 70.8027 152.123 71.712 152.123 72.768C152.123 74.0733 151.823 75.2467 151.221 76.288C150.62 77.3293 149.791 78.1507 148.735 78.752C147.694 79.3533 146.491 79.654 145.127 79.654ZM145.303 77.3C146.095 77.3 146.792 77.1167 147.393 76.75C147.995 76.3687 148.471 75.848 148.823 75.188C149.175 74.528 149.351 73.7653 149.351 72.9C149.351 71.9907 149.08 71.272 148.537 70.744C147.995 70.216 147.232 69.952 146.249 69.952C145.472 69.952 144.775 70.1427 144.159 70.524C143.558 70.8907 143.081 71.404 142.729 72.064C142.377 72.724 142.201 73.4867 142.201 74.352C142.201 75.276 142.473 76.002 143.015 76.53C143.558 77.0433 144.321 77.3 145.303 77.3ZM40.8528 106.654C39.7088 106.654 38.7041 106.441 37.8388 106.016C36.9881 105.576 36.3281 104.975 35.8588 104.212C35.3895 103.435 35.1548 102.525 35.1548 101.484C35.1548 100.164 35.4555 98.9907 36.0568 97.964C36.6581 96.9227 37.4795 96.1087 38.5208 95.522C39.5768 94.9207 40.7795 94.62 42.1288 94.62C43.2875 94.62 44.2921 94.8327 45.1428 95.258C46.0081 95.6687 46.6755 96.2627 47.1448 97.04C47.6141 97.8027 47.8488 98.712 47.8488 99.768C47.8488 101.073 47.5481 102.247 46.9468 103.288C46.3455 104.329 45.5168 105.151 44.4608 105.752C43.4195 106.353 42.2168 106.654 40.8528 106.654ZM41.0288 104.3C41.8208 104.3 42.5175 104.117 43.1188 103.75C43.7201 103.369 44.1968 102.848 44.5488 102.188C44.9008 101.528 45.0768 100.765 45.0768 99.9C45.0768 98.9907 44.8055 98.272 44.2628 97.744C43.7201 97.216 42.9575 96.952 41.9748 96.952C41.1975 96.952 40.5008 97.1427 39.8848 97.524C39.2835 97.8907 38.8068 98.404 38.4548 99.064C38.1028 99.724 37.9268 100.487 37.9268 101.352C37.9268 102.276 38.1981 103.002 38.7408 103.53C39.2835 104.043 40.0461 104.3 41.0288 104.3ZM51.3642 106.5L53.3442 96.424L53.8502 97.084H49.1202L49.5822 94.752H60.6042L60.1202 97.084H55.3242L56.0942 96.424L54.1142 106.5H51.3642ZM65.6473 106.654C64.4886 106.654 63.4693 106.441 62.5893 106.016C61.724 105.576 61.0566 104.975 60.5873 104.212C60.118 103.435 59.8833 102.525 59.8833 101.484C59.8833 100.164 60.184 98.9907 60.7853 97.964C61.3866 96.9227 62.2153 96.1087 63.2713 95.522C64.3273 94.9207 65.5446 94.62 66.9233 94.62C68.1113 94.62 69.1306 94.8547 69.9813 95.324C70.8466 95.7787 71.514 96.4607 71.9833 97.37L69.6293 98.58C69.3653 98.0227 68.984 97.612 68.4853 97.348C68.0013 97.084 67.4073 96.952 66.7033 96.952C65.9406 96.952 65.2513 97.1427 64.6353 97.524C64.0193 97.8907 63.5353 98.404 63.1833 99.064C62.8313 99.724 62.6553 100.487 62.6553 101.352C62.6553 102.261 62.9266 102.98 63.4693 103.508C64.012 104.036 64.782 104.3 65.7793 104.3C66.4246 104.3 67.026 104.168 67.5833 103.904C68.1406 103.64 68.61 103.229 68.9913 102.672L71.0153 104.036C70.4726 104.857 69.7246 105.503 68.7713 105.972C67.818 106.427 66.7766 106.654 65.6473 106.654ZM70.753 106.478L71.369 104.168C71.4717 104.183 71.567 104.197 71.655 104.212C71.743 104.227 71.8237 104.234 71.897 104.234C72.425 104.234 72.865 104.021 73.217 103.596C73.569 103.156 73.877 102.562 74.141 101.814C74.405 101.051 74.6544 100.193 74.889 99.24L75.989 94.752H85.493L83.139 106.5H80.389L82.413 96.314L82.941 97.084H77.331L78.057 96.27L77.287 99.416C76.9937 100.604 76.693 101.653 76.385 102.562C76.077 103.471 75.7324 104.234 75.351 104.85C74.9697 105.466 74.537 105.935 74.053 106.258C73.569 106.566 72.997 106.72 72.337 106.72C72.0584 106.72 71.8017 106.698 71.567 106.654C71.3177 106.61 71.0464 106.551 70.753 106.478ZM92.8261 106.654C91.6527 106.654 90.6334 106.441 89.7681 106.016C88.9027 105.576 88.2281 104.975 87.7441 104.212C87.2747 103.435 87.0401 102.525 87.0401 101.484C87.0401 100.149 87.3334 98.9687 87.9201 97.942C88.5067 96.9153 89.3061 96.1087 90.3181 95.522C91.3447 94.9207 92.5107 94.62 93.8161 94.62C94.9161 94.62 95.8694 94.8253 96.6761 95.236C97.4827 95.6467 98.1061 96.2407 98.5461 97.018C99.0007 97.7807 99.2281 98.6973 99.2281 99.768C99.2281 100.047 99.2134 100.333 99.1841 100.626C99.1547 100.919 99.1107 101.191 99.0521 101.44H89.0861L89.3941 99.614H97.7541L96.6321 100.23C96.7494 99.482 96.6981 98.8587 96.4781 98.36C96.2581 97.8613 95.9061 97.48 95.4221 97.216C94.9381 96.952 94.3587 96.82 93.6841 96.82C92.8774 96.82 92.1734 97.0107 91.5721 97.392C90.9854 97.7587 90.5307 98.2867 90.2081 98.976C89.8854 99.6507 89.7241 100.443 89.7241 101.352C89.7241 102.305 89.9954 103.039 90.5381 103.552C91.0954 104.065 91.9534 104.322 93.1121 104.322C93.7721 104.322 94.4027 104.219 95.0041 104.014C95.6054 103.794 96.1041 103.493 96.5001 103.112L97.6441 105.026C97.0281 105.569 96.2947 105.979 95.4441 106.258C94.6081 106.522 93.7354 106.654 92.8261 106.654ZM114.415 106.5L112.039 100.824L114.481 99.746L117.627 106.5H114.415ZM109.663 101.704L110.081 99.548H114.041L113.623 101.704H109.663ZM114.613 100.912L111.973 100.626L116.703 94.752H119.739L114.613 100.912ZM102.007 106.5H98.6193L104.471 99.526L106.517 100.824L102.007 106.5ZM109.531 106.5H106.781L109.113 94.752H111.885L109.531 106.5ZM108.563 101.704H104.625L105.065 99.548H108.981L108.563 101.704ZM104.009 100.912L101.347 94.752H104.229L106.605 100.626L104.009 100.912ZM119.671 106.5L122.025 94.752H124.797L123.191 102.716L131.177 94.752H133.795L131.441 106.5H128.647L130.297 98.514L122.311 106.5H119.671ZM135.161 106.5L137.515 94.752H143.169C144.474 94.752 145.479 94.9867 146.183 95.456C146.887 95.9253 147.239 96.6073 147.239 97.502C147.239 98.4847 146.806 99.284 145.941 99.9C145.09 100.501 143.954 100.802 142.531 100.802L142.817 100.164C144.064 100.164 144.995 100.384 145.611 100.824C146.227 101.249 146.535 101.917 146.535 102.826C146.535 103.97 146.073 104.872 145.149 105.532C144.225 106.177 142.927 106.5 141.255 106.5H135.161ZM138.197 104.498H141.321C142.142 104.498 142.78 104.337 143.235 104.014C143.704 103.691 143.939 103.259 143.939 102.716C143.939 102.291 143.792 101.983 143.499 101.792C143.206 101.587 142.736 101.484 142.091 101.484H138.791L138.197 104.498ZM139.143 99.658H142.025C142.758 99.658 143.345 99.504 143.785 99.196C144.24 98.888 144.467 98.4847 144.467 97.986C144.467 97.5607 144.313 97.2527 144.005 97.062C143.697 96.8567 143.235 96.754 142.619 96.754H139.737L139.143 99.658ZM154.128 106.654C153.175 106.654 152.302 106.449 151.51 106.038C150.733 105.627 150.109 105.041 149.64 104.278C149.185 103.501 148.958 102.569 148.958 101.484C148.958 100.487 149.119 99.57 149.442 98.734C149.779 97.898 150.249 97.172 150.85 96.556C151.451 95.94 152.148 95.4633 152.94 95.126C153.747 94.7887 154.627 94.62 155.58 94.62C156.563 94.62 157.406 94.796 158.11 95.148C158.829 95.5 159.371 96.0353 159.738 96.754C160.105 97.458 160.273 98.338 160.244 99.394C160.215 100.846 159.951 102.122 159.452 103.222C158.953 104.307 158.257 105.151 157.362 105.752C156.467 106.353 155.389 106.654 154.128 106.654ZM154.832 104.3C155.624 104.3 156.321 104.117 156.922 103.75C157.523 103.369 158 102.848 158.352 102.188C158.704 101.528 158.88 100.765 158.88 99.9C158.88 98.9907 158.609 98.272 158.066 97.744C157.523 97.216 156.761 96.952 155.778 96.952C155.001 96.952 154.304 97.1427 153.688 97.524C153.087 97.8907 152.61 98.404 152.258 99.064C151.906 99.724 151.73 100.487 151.73 101.352C151.73 102.261 152.001 102.98 152.544 103.508C153.087 104.036 153.849 104.3 154.832 104.3ZM157.714 106.5L158.242 103.816L158.99 100.692L159.364 97.546L159.914 94.752H162.664L160.332 106.5H157.714ZM166.477 106.5L168.457 96.424L168.963 97.084H164.233L164.695 94.752H175.717L175.233 97.084H170.437L171.207 96.424L169.227 106.5H166.477ZM182.64 98.602C183.99 98.602 185.009 98.8807 185.698 99.438C186.388 99.9807 186.732 100.795 186.732 101.88C186.732 102.819 186.498 103.633 186.028 104.322C185.559 105.011 184.892 105.547 184.026 105.928C183.176 106.309 182.164 106.5 180.99 106.5H175.358L177.712 94.752H180.44L179.692 98.602H182.64ZM180.99 104.498C181.592 104.498 182.112 104.403 182.552 104.212C182.992 104.007 183.337 103.728 183.586 103.376C183.836 103.009 183.96 102.584 183.96 102.1C183.96 101.044 183.249 100.516 181.826 100.516H179.296L178.526 104.498H180.99ZM27.5233 133.654C26.3646 133.654 25.3453 133.441 24.4653 133.016C23.6 132.576 22.9326 131.975 22.4633 131.212C21.994 130.435 21.7593 129.525 21.7593 128.484C21.7593 127.164 22.06 125.991 22.6613 124.964C23.2626 123.923 24.0913 123.109 25.1473 122.522C26.2033 121.921 27.4206 121.62 28.7993 121.62C29.9873 121.62 31.0066 121.855 31.8573 122.324C32.7226 122.779 33.39 123.461 33.8593 124.37L31.5053 125.58C31.2413 125.023 30.86 124.612 30.3613 124.348C29.8773 124.084 29.2833 123.952 28.5793 123.952C27.8166 123.952 27.1273 124.143 26.5113 124.524C25.8953 124.891 25.4113 125.404 25.0593 126.064C24.7073 126.724 24.5313 127.487 24.5313 128.352C24.5313 129.261 24.8026 129.98 25.3453 130.508C25.888 131.036 26.658 131.3 27.6553 131.3C28.3006 131.3 28.902 131.168 29.4593 130.904C30.0166 130.64 30.486 130.229 30.8673 129.672L32.8913 131.036C32.3486 131.857 31.6006 132.503 30.6473 132.972C29.694 133.427 28.6526 133.654 27.5233 133.654ZM40.4364 133.654C39.2631 133.654 38.2438 133.441 37.3784 133.016C36.5131 132.576 35.8384 131.975 35.3544 131.212C34.8851 130.435 34.6504 129.525 34.6504 128.484C34.6504 127.149 34.9438 125.969 35.5304 124.942C36.1171 123.915 36.9164 123.109 37.9284 122.522C38.9551 121.921 40.1211 121.62 41.4264 121.62C42.5264 121.62 43.4798 121.825 44.2864 122.236C45.0931 122.647 45.7164 123.241 46.1564 124.018C46.6111 124.781 46.8384 125.697 46.8384 126.768C46.8384 127.047 46.8238 127.333 46.7944 127.626C46.7651 127.919 46.7211 128.191 46.6624 128.44H36.6964L37.0044 126.614H45.3644L44.2424 127.23C44.3598 126.482 44.3084 125.859 44.0884 125.36C43.8684 124.861 43.5164 124.48 43.0324 124.216C42.5484 123.952 41.9691 123.82 41.2944 123.82C40.4878 123.82 39.7838 124.011 39.1824 124.392C38.5958 124.759 38.1411 125.287 37.8184 125.976C37.4958 126.651 37.3344 127.443 37.3344 128.352C37.3344 129.305 37.6058 130.039 38.1484 130.552C38.7058 131.065 39.5638 131.322 40.7224 131.322C41.3824 131.322 42.0131 131.219 42.6144 131.014C43.2158 130.794 43.7144 130.493 44.1104 130.112L45.2544 132.026C44.6384 132.569 43.9051 132.979 43.0544 133.258C42.2184 133.522 41.3458 133.654 40.4364 133.654ZM54.3619 133.72C52.6166 133.72 51.2526 133.236 50.2699 132.268C49.3019 131.285 48.8179 129.826 48.8179 127.89C48.8179 126.658 49.0012 125.492 49.3679 124.392C49.7492 123.292 50.2846 122.295 50.9739 121.4C51.6779 120.505 52.5139 119.757 53.4819 119.156C54.4499 118.555 55.5279 118.137 56.7159 117.902L62.4139 116.802L62.3919 119.134L57.3319 120.08C56.2026 120.3 55.2272 120.696 54.4059 121.268C53.5992 121.84 52.9612 122.581 52.4919 123.49C52.0226 124.399 51.7072 125.485 51.5459 126.746L50.8419 126.042C51.5606 124.957 52.4112 124.143 53.3939 123.6C54.3766 123.043 55.4766 122.764 56.6939 122.764C58.1752 122.764 59.3412 123.167 60.1919 123.974C61.0572 124.766 61.4899 125.881 61.4899 127.318C61.4899 128.535 61.1892 129.628 60.5879 130.596C59.9866 131.564 59.1432 132.327 58.0579 132.884C56.9872 133.441 55.7552 133.72 54.3619 133.72ZM54.5379 131.608C55.3006 131.608 55.9826 131.439 56.5839 131.102C57.1852 130.765 57.6546 130.303 57.9919 129.716C58.3439 129.129 58.5199 128.469 58.5199 127.736C58.5199 126.885 58.2632 126.225 57.7499 125.756C57.2512 125.287 56.5619 125.052 55.6819 125.052C55.1246 125.052 54.5966 125.147 54.0979 125.338C53.5992 125.529 53.1519 125.793 52.7559 126.13C52.3746 126.467 52.0739 126.863 51.8539 127.318C51.6339 127.773 51.5239 128.264 51.5239 128.792C51.5239 129.628 51.7952 130.31 52.3379 130.838C52.8806 131.351 53.6139 131.608 54.5379 131.608ZM70.121 133.5L70.891 129.43L71.221 130.068H67.745C66.293 130.068 65.171 129.731 64.379 129.056C63.6016 128.381 63.213 127.501 63.213 126.416C63.213 124.949 63.763 123.805 64.863 122.984C65.9776 122.163 67.4956 121.752 69.417 121.752H74.895L72.563 133.5H70.121ZM61.673 133.5L65.743 129.012H68.537L64.731 133.5H61.673ZM71.067 128.66L72.145 123.226L72.409 124.062H69.197C68.1996 124.062 67.4223 124.26 66.865 124.656C66.3223 125.037 66.051 125.609 66.051 126.372C66.051 127.457 66.777 128 68.229 128H71.573L71.067 128.66ZM82.3416 133.5L84.6956 121.752H90.3496C91.6549 121.752 92.6596 121.987 93.3636 122.456C94.0676 122.925 94.4196 123.607 94.4196 124.502C94.4196 125.485 93.9869 126.284 93.1216 126.9C92.2709 127.501 91.1343 127.802 89.7116 127.802L89.9976 127.164C91.2443 127.164 92.1756 127.384 92.7916 127.824C93.4076 128.249 93.7156 128.917 93.7156 129.826C93.7156 130.97 93.2536 131.872 92.3296 132.532C91.4056 133.177 90.1076 133.5 88.4356 133.5H82.3416ZM85.3776 131.498H88.5016C89.3229 131.498 89.9609 131.337 90.4156 131.014C90.8849 130.691 91.1196 130.259 91.1196 129.716C91.1196 129.291 90.9729 128.983 90.6796 128.792C90.3863 128.587 89.9169 128.484 89.2716 128.484H85.9716L85.3776 131.498ZM86.3236 126.658H89.2056C89.9389 126.658 90.5256 126.504 90.9656 126.196C91.4203 125.888 91.6476 125.485 91.6476 124.986C91.6476 124.561 91.4936 124.253 91.1856 124.062C90.8776 123.857 90.4156 123.754 89.7996 123.754H86.9176L86.3236 126.658ZM104.463 133.5L106.443 123.424L106.949 124.084H102.219L102.681 121.752H113.703L113.219 124.084H108.423L109.193 123.424L107.213 133.5H104.463ZM118.174 133.654C117.221 133.654 116.348 133.449 115.556 133.038C114.779 132.627 114.155 132.041 113.686 131.278C113.231 130.501 113.004 129.569 113.004 128.484C113.004 127.487 113.165 126.57 113.488 125.734C113.825 124.898 114.295 124.172 114.896 123.556C115.497 122.94 116.194 122.463 116.986 122.126C117.793 121.789 118.673 121.62 119.626 121.62C120.609 121.62 121.452 121.796 122.156 122.148C122.875 122.5 123.417 123.035 123.784 123.754C124.151 124.458 124.319 125.338 124.29 126.394C124.261 127.846 123.997 129.122 123.498 130.222C122.999 131.307 122.303 132.151 121.408 132.752C120.513 133.353 119.435 133.654 118.174 133.654ZM118.878 131.3C119.67 131.3 120.367 131.117 120.968 130.75C121.569 130.369 122.046 129.848 122.398 129.188C122.75 128.528 122.926 127.765 122.926 126.9C122.926 125.991 122.655 125.272 122.112 124.744C121.569 124.216 120.807 123.952 119.824 123.952C119.047 123.952 118.35 124.143 117.734 124.524C117.133 124.891 116.656 125.404 116.304 126.064C115.952 126.724 115.776 127.487 115.776 128.352C115.776 129.261 116.047 129.98 116.59 130.508C117.133 131.036 117.895 131.3 118.878 131.3ZM121.76 133.5L122.288 130.816L123.036 127.692L123.41 124.546L123.96 121.752H126.71L124.378 133.5H121.76ZM134.219 133.72C132.474 133.72 131.11 133.236 130.127 132.268C129.159 131.285 128.675 129.826 128.675 127.89C128.675 126.658 128.859 125.492 129.225 124.392C129.607 123.292 130.142 122.295 130.831 121.4C131.535 120.505 132.371 119.757 133.339 119.156C134.307 118.555 135.385 118.137 136.573 117.902L142.271 116.802L142.249 119.134L137.189 120.08C136.06 120.3 135.085 120.696 134.263 121.268C133.457 121.84 132.819 122.581 132.349 123.49C131.88 124.399 131.565 125.485 131.403 126.746L130.699 126.042C131.418 124.957 132.269 124.143 133.251 123.6C134.234 123.043 135.334 122.764 136.551 122.764C138.033 122.764 139.199 123.167 140.049 123.974C140.915 124.766 141.347 125.881 141.347 127.318C141.347 128.535 141.047 129.628 140.445 130.596C139.844 131.564 139.001 132.327 137.915 132.884C136.845 133.441 135.613 133.72 134.219 133.72ZM134.395 131.608C135.158 131.608 135.84 131.439 136.441 131.102C137.043 130.765 137.512 130.303 137.849 129.716C138.201 129.129 138.377 128.469 138.377 127.736C138.377 126.885 138.121 126.225 137.607 125.756C137.109 125.287 136.419 125.052 135.539 125.052C134.982 125.052 134.454 125.147 133.955 125.338C133.457 125.529 133.009 125.793 132.613 126.13C132.232 126.467 131.931 126.863 131.711 127.318C131.491 127.773 131.381 128.264 131.381 128.792C131.381 129.628 131.653 130.31 132.195 130.838C132.738 131.351 133.471 131.608 134.395 131.608ZM140.996 133.478L141.612 131.168C141.715 131.183 141.81 131.197 141.898 131.212C141.986 131.227 142.067 131.234 142.14 131.234C142.668 131.234 143.108 131.021 143.46 130.596C143.812 130.156 144.12 129.562 144.384 128.814C144.648 128.051 144.898 127.193 145.132 126.24L146.232 121.752H155.736L153.382 133.5H150.632L152.656 123.314L153.184 124.084H147.574L148.3 123.27L147.53 126.416C147.237 127.604 146.936 128.653 146.628 129.562C146.32 130.471 145.976 131.234 145.594 131.85C145.213 132.466 144.78 132.935 144.296 133.258C143.812 133.566 143.24 133.72 142.58 133.72C142.302 133.72 142.045 133.698 141.81 133.654C141.561 133.61 141.29 133.551 140.996 133.478ZM157.107 133.5L159.461 121.752H162.233L160.627 129.716L168.613 121.752H171.231L168.877 133.5H166.083L167.733 125.514L159.747 133.5H157.107ZM172.597 133.5L174.951 121.752H177.679L175.809 131.168H181.419L183.289 121.752H186.039L183.707 133.5H172.597ZM182.365 136.118L182.937 133.434L183.553 133.5H180.957L181.419 131.168H185.951L184.939 136.118H182.365ZM193.878 133.654C192.704 133.654 191.685 133.441 190.82 133.016C189.954 132.576 189.28 131.975 188.796 131.212C188.326 130.435 188.092 129.525 188.092 128.484C188.092 127.149 188.385 125.969 188.972 124.942C189.558 123.915 190.358 123.109 191.37 122.522C192.396 121.921 193.562 121.62 194.868 121.62C195.968 121.62 196.921 121.825 197.728 122.236C198.534 122.647 199.158 123.241 199.598 124.018C200.052 124.781 200.28 125.697 200.28 126.768C200.28 127.047 200.265 127.333 200.236 127.626C200.206 127.919 200.162 128.191 200.104 128.44H190.138L190.446 126.614H198.806L197.684 127.23C197.801 126.482 197.75 125.859 197.53 125.36C197.31 124.861 196.958 124.48 196.474 124.216C195.99 123.952 195.41 123.82 194.736 123.82C193.929 123.82 193.225 124.011 192.624 124.392C192.037 124.759 191.582 125.287 191.26 125.976C190.937 126.651 190.776 127.443 190.776 128.352C190.776 129.305 191.047 130.039 191.59 130.552C192.147 131.065 193.005 131.322 194.164 131.322C194.824 131.322 195.454 131.219 196.056 131.014C196.657 130.794 197.156 130.493 197.552 130.112L198.696 132.026C198.08 132.569 197.346 132.979 196.496 133.258C195.66 133.522 194.787 133.654 193.878 133.654ZM58.9688 160.478L59.5848 158.168C59.6875 158.183 59.7828 158.197 59.8708 158.212C59.9588 158.227 60.0395 158.234 60.1128 158.234C60.6408 158.234 61.0808 158.021 61.4328 157.596C61.7848 157.156 62.0928 156.562 62.3568 155.814C62.6208 155.051 62.8702 154.193 63.1048 153.24L64.2048 148.752H73.7088L71.3548 160.5H68.6048L70.6288 150.314L71.1568 151.084H65.5468L66.2728 150.27L65.5028 153.416C65.2095 154.604 64.9088 155.653 64.6008 156.562C64.2928 157.471 63.9482 158.234 63.5668 158.85C63.1855 159.466 62.7528 159.935 62.2688 160.258C61.7848 160.566 61.2128 160.72 60.5528 160.72C60.2742 160.72 60.0175 160.698 59.7828 160.654C59.5335 160.61 59.2622 160.551 58.9688 160.478ZM75.0799 160.5L77.4339 148.752H80.2059L78.5999 156.716L86.5859 148.752H89.2039L86.8499 160.5H84.0559L85.7059 152.514L77.7199 160.5H75.0799ZM98.8641 159.224L100.492 151.084H95.9821L95.5201 153.064C95.3588 153.753 95.1901 154.406 95.0141 155.022C94.8381 155.638 94.6328 156.203 94.3981 156.716C94.1781 157.215 93.9141 157.633 93.6061 157.97C93.3128 158.307 92.9461 158.52 92.5061 158.608L89.6901 158.168C90.1301 158.168 90.5188 158.021 90.8561 157.728C91.1935 157.435 91.4941 157.031 91.7581 156.518C92.0368 155.99 92.2861 155.396 92.5061 154.736C92.7261 154.061 92.9241 153.372 93.1001 152.668L94.0241 148.752H103.704L101.614 159.224H98.8641ZM88.3921 163.118L89.3601 158.168H103.572L102.582 163.118H100.008L100.536 160.5H91.4721L90.9441 163.118H88.3921ZM111.507 160.654C110.333 160.654 109.314 160.441 108.449 160.016C107.583 159.576 106.909 158.975 106.425 158.212C105.955 157.435 105.721 156.525 105.721 155.484C105.721 154.149 106.014 152.969 106.601 151.942C107.187 150.915 107.987 150.109 108.999 149.522C110.025 148.921 111.191 148.62 112.497 148.62C113.597 148.62 114.55 148.825 115.357 149.236C116.163 149.647 116.787 150.241 117.227 151.018C117.681 151.781 117.909 152.697 117.909 153.768C117.909 154.047 117.894 154.333 117.865 154.626C117.835 154.919 117.791 155.191 117.733 155.44H107.767L108.075 153.614H116.435L115.313 154.23C115.43 153.482 115.379 152.859 115.159 152.36C114.939 151.861 114.587 151.48 114.103 151.216C113.619 150.952 113.039 150.82 112.365 150.82C111.558 150.82 110.854 151.011 110.253 151.392C109.666 151.759 109.211 152.287 108.889 152.976C108.566 153.651 108.405 154.443 108.405 155.352C108.405 156.305 108.676 157.039 109.219 157.552C109.776 158.065 110.634 158.322 111.793 158.322C112.453 158.322 113.083 158.219 113.685 158.014C114.286 157.794 114.785 157.493 115.181 157.112L116.325 159.026C115.709 159.569 114.975 159.979 114.125 160.258C113.289 160.522 112.416 160.654 111.507 160.654ZM126.422 160.654C125.44 160.654 124.589 160.478 123.87 160.126C123.152 159.759 122.609 159.224 122.242 158.52C121.876 157.801 121.707 156.914 121.736 155.858C121.766 154.391 122.03 153.115 122.528 152.03C123.027 150.945 123.724 150.109 124.618 149.522C125.528 148.921 126.606 148.62 127.852 148.62C128.82 148.62 129.693 148.825 130.47 149.236C131.248 149.632 131.864 150.219 132.318 150.996C132.788 151.759 133.022 152.683 133.022 153.768C133.022 154.765 132.854 155.682 132.516 156.518C132.194 157.354 131.732 158.08 131.13 158.696C130.529 159.312 129.825 159.796 129.018 160.148C128.226 160.485 127.361 160.654 126.422 160.654ZM118.458 164.768L121.648 148.752H124.266L123.738 151.436L123.012 154.56L122.616 157.706L121.208 164.768H118.458ZM126.202 158.3C126.994 158.3 127.691 158.117 128.292 157.75C128.894 157.369 129.37 156.848 129.722 156.188C130.074 155.528 130.25 154.765 130.25 153.9C130.25 152.991 129.979 152.272 129.436 151.744C128.894 151.216 128.131 150.952 127.148 150.952C126.371 150.952 125.674 151.143 125.058 151.524C124.457 151.891 123.98 152.404 123.628 153.064C123.276 153.724 123.1 154.487 123.1 155.352C123.1 156.261 123.372 156.98 123.914 157.508C124.457 158.036 125.22 158.3 126.202 158.3ZM140.444 160.654C139.3 160.654 138.295 160.441 137.43 160.016C136.579 159.576 135.919 158.975 135.45 158.212C134.98 157.435 134.746 156.525 134.746 155.484C134.746 154.164 135.046 152.991 135.648 151.964C136.249 150.923 137.07 150.109 138.112 149.522C139.168 148.921 140.37 148.62 141.72 148.62C142.878 148.62 143.883 148.833 144.734 149.258C145.599 149.669 146.266 150.263 146.736 151.04C147.205 151.803 147.44 152.712 147.44 153.768C147.44 155.073 147.139 156.247 146.538 157.288C145.936 158.329 145.108 159.151 144.052 159.752C143.01 160.353 141.808 160.654 140.444 160.654ZM140.62 158.3C141.412 158.3 142.108 158.117 142.71 157.75C143.311 157.369 143.788 156.848 144.14 156.188C144.492 155.528 144.668 154.765 144.668 153.9C144.668 152.991 144.396 152.272 143.854 151.744C143.311 151.216 142.548 150.952 141.566 150.952C140.788 150.952 140.092 151.143 139.476 151.524C138.874 151.891 138.398 152.404 138.046 153.064C137.694 153.724 137.518 154.487 137.518 155.352C137.518 156.276 137.789 157.002 138.332 157.53C138.874 158.043 139.637 158.3 140.62 158.3ZM148.965 160.5L151.319 148.752H156.973C158.278 148.752 159.283 148.987 159.987 149.456C160.691 149.925 161.043 150.607 161.043 151.502C161.043 152.485 160.61 153.284 159.745 153.9C158.894 154.501 157.757 154.802 156.335 154.802L156.621 154.164C157.867 154.164 158.799 154.384 159.415 154.824C160.031 155.249 160.339 155.917 160.339 156.826C160.339 157.97 159.877 158.872 158.953 159.532C158.029 160.177 156.731 160.5 155.059 160.5H148.965ZM152.001 158.498H155.125C155.946 158.498 156.584 158.337 157.039 158.014C157.508 157.691 157.743 157.259 157.743 156.716C157.743 156.291 157.596 155.983 157.303 155.792C157.009 155.587 156.54 155.484 155.895 155.484H152.595L152.001 158.498ZM152.947 153.658H155.829C156.562 153.658 157.149 153.504 157.589 153.196C158.043 152.888 158.271 152.485 158.271 151.986C158.271 151.561 158.117 151.253 157.809 151.062C157.501 150.857 157.039 150.754 156.423 150.754H153.541L152.947 153.658Z" fill="white"/>
</svg>
