<svg width="221" height="221" viewBox="0 0 221 221" fill="none" xmlns="http://www.w3.org/2000/svg">
<circle cx="110.5" cy="110.5" r="110.5" fill="#D868FF"/>
<path d="M11.4646 100L14.5446 84.6H28.1846L25.1046 100H22.2666L24.9726 86.316L25.4786 87.02H16.1726L16.9866 86.316L14.3026 100H11.4646ZM36.245 100.154C35.2624 100.154 34.4117 99.978 33.693 99.626C32.9744 99.2593 32.4317 98.724 32.065 98.02C31.6984 97.3013 31.5297 96.414 31.559 95.358C31.5884 93.8913 31.8524 92.6153 32.351 91.53C32.8497 90.4447 33.5464 89.6087 34.441 89.022C35.3504 88.4207 36.4284 88.12 37.675 88.12C38.643 88.12 39.5157 88.3253 40.293 88.736C41.0704 89.132 41.6864 89.7187 42.141 90.496C42.6104 91.2587 42.845 92.1827 42.845 93.268C42.845 94.2653 42.6764 95.182 42.339 96.018C42.0164 96.854 41.5544 97.58 40.953 98.196C40.3517 98.812 39.6477 99.296 38.841 99.648C38.049 99.9853 37.1837 100.154 36.245 100.154ZM28.281 104.268L31.471 88.252H34.089L33.561 90.936L32.835 94.06L32.439 97.206L31.031 104.268H28.281ZM36.025 97.8C36.817 97.8 37.5137 97.6167 38.115 97.25C38.7164 96.8687 39.193 96.348 39.545 95.688C39.897 95.028 40.073 94.2653 40.073 93.4C40.073 92.4907 39.8017 91.772 39.259 91.244C38.7164 90.716 37.9537 90.452 36.971 90.452C36.1937 90.452 35.497 90.6427 34.881 91.024C34.2797 91.3907 33.803 91.904 33.451 92.564C33.099 93.224 32.923 93.9867 32.923 94.852C32.923 95.7613 33.1944 96.48 33.737 97.008C34.2797 97.536 35.0424 97.8 36.025 97.8ZM44.4144 100L46.7684 88.252H49.5404L47.9344 96.216L55.9204 88.252H58.5384L56.1844 100H53.3904L55.0404 92.014L47.0544 100H44.4144ZM59.9047 100L62.2587 88.252H67.9127C69.218 88.252 70.2227 88.4867 70.9267 88.956C71.6307 89.4253 71.9827 90.1073 71.9827 91.002C71.9827 91.9847 71.55 92.784 70.6847 93.4C69.834 94.0013 68.6973 94.302 67.2747 94.302L67.5607 93.664C68.8073 93.664 69.7387 93.884 70.3547 94.324C70.9707 94.7493 71.2787 95.4167 71.2787 96.326C71.2787 97.47 70.8167 98.372 69.8927 99.032C68.9687 99.6773 67.6707 100 65.9987 100H59.9047ZM62.9407 97.998H66.0647C66.886 97.998 67.524 97.8367 67.9787 97.514C68.448 97.1913 68.6827 96.7587 68.6827 96.216C68.6827 95.7907 68.536 95.4827 68.2427 95.292C67.9493 95.0867 67.48 94.984 66.8347 94.984H63.5347L62.9407 97.998ZM63.8867 93.158H66.7687C67.502 93.158 68.0887 93.004 68.5287 92.696C68.9833 92.388 69.2107 91.9847 69.2107 91.486C69.2107 91.0607 69.0567 90.7527 68.7487 90.562C68.4407 90.3567 67.9787 90.254 67.3627 90.254H64.4807L63.8867 93.158ZM71.7877 99.978L72.4037 97.668C72.5064 97.6827 72.6017 97.6973 72.6897 97.712C72.7777 97.7267 72.8584 97.734 72.9318 97.734C73.4598 97.734 73.8998 97.5213 74.2518 97.096C74.6038 96.656 74.9118 96.062 75.1758 95.314C75.4398 94.5513 75.6891 93.6933 75.9238 92.74L77.0238 88.252H86.5278L84.1738 100H81.4238L83.4478 89.814L83.9758 90.584H78.3658L79.0918 89.77L78.3218 92.916C78.0284 94.104 77.7278 95.1527 77.4198 96.062C77.1118 96.9713 76.7671 97.734 76.3858 98.35C76.0044 98.966 75.5718 99.4353 75.0878 99.758C74.6038 100.066 74.0318 100.22 73.3718 100.22C73.0931 100.22 72.8364 100.198 72.6017 100.154C72.3524 100.11 72.0811 100.051 71.7877 99.978ZM93.8608 100.154C92.6875 100.154 91.6681 99.9413 90.8028 99.516C89.9375 99.076 89.2628 98.4747 88.7788 97.712C88.3095 96.9347 88.0748 96.0253 88.0748 94.984C88.0748 93.6493 88.3681 92.4687 88.9548 91.442C89.5415 90.4153 90.3408 89.6087 91.3528 89.022C92.3795 88.4207 93.5455 88.12 94.8508 88.12C95.9508 88.12 96.9041 88.3253 97.7108 88.736C98.5175 89.1467 99.1408 89.7407 99.5808 90.518C100.035 91.2807 100.263 92.1973 100.263 93.268C100.263 93.5467 100.248 93.8327 100.219 94.126C100.189 94.4193 100.145 94.6907 100.087 94.94H90.1208L90.4288 93.114H98.7888L97.6668 93.73C97.7841 92.982 97.7328 92.3587 97.5128 91.86C97.2928 91.3613 96.9408 90.98 96.4568 90.716C95.9728 90.452 95.3935 90.32 94.7188 90.32C93.9121 90.32 93.2081 90.5107 92.6068 90.892C92.0201 91.2587 91.5655 91.7867 91.2428 92.476C90.9201 93.1507 90.7588 93.9427 90.7588 94.852C90.7588 95.8053 91.0301 96.5387 91.5728 97.052C92.1301 97.5653 92.9881 97.822 94.1468 97.822C94.8068 97.822 95.4375 97.7193 96.0388 97.514C96.6401 97.294 97.1388 96.9933 97.5348 96.612L98.6788 98.526C98.0628 99.0687 97.3295 99.4793 96.4788 99.758C95.6428 100.022 94.7701 100.154 93.8608 100.154ZM110.096 100L107.104 94.324L109.392 93.268L113.286 100H110.096ZM101.67 100L104.024 88.252H106.774L104.42 100H101.67ZM104.574 95.292L104.992 93.004H108.974L108.556 95.292H104.574ZM109.48 94.456L106.884 94.126L112.406 88.252H115.42L109.48 94.456ZM120.186 100.154C119.233 100.154 118.36 99.9487 117.568 99.538C116.791 99.1273 116.168 98.5407 115.698 97.778C115.244 97.0007 115.016 96.0693 115.016 94.984C115.016 93.9867 115.178 93.07 115.5 92.234C115.838 91.398 116.307 90.672 116.908 90.056C117.51 89.44 118.206 88.9633 118.998 88.626C119.805 88.2887 120.685 88.12 121.638 88.12C122.621 88.12 123.464 88.296 124.168 88.648C124.887 89 125.43 89.5353 125.796 90.254C126.163 90.958 126.332 91.838 126.302 92.894C126.273 94.346 126.009 95.622 125.51 96.722C125.012 97.8073 124.315 98.6507 123.42 99.252C122.526 99.8533 121.448 100.154 120.186 100.154ZM120.89 97.8C121.682 97.8 122.379 97.6167 122.98 97.25C123.582 96.8687 124.058 96.348 124.41 95.688C124.762 95.028 124.938 94.2653 124.938 93.4C124.938 92.4907 124.667 91.772 124.124 91.244C123.582 90.716 122.819 90.452 121.836 90.452C121.059 90.452 120.362 90.6427 119.746 91.024C119.145 91.3907 118.668 91.904 118.316 92.564C117.964 93.224 117.788 93.9867 117.788 94.852C117.788 95.7613 118.06 96.48 118.602 97.008C119.145 97.536 119.908 97.8 120.89 97.8ZM123.772 100L124.3 97.316L125.048 94.192L125.422 91.046L125.972 88.252H128.722L126.39 100H123.772ZM132.536 100L134.516 89.924L135.022 90.584H130.292L130.754 88.252H141.776L141.292 90.584H136.496L137.266 89.924L135.286 100H132.536ZM146.863 100.154C145.689 100.154 144.67 99.9413 143.805 99.516C142.939 99.076 142.265 98.4747 141.781 97.712C141.311 96.9347 141.077 96.0253 141.077 94.984C141.077 93.6493 141.37 92.4687 141.957 91.442C142.543 90.4153 143.343 89.6087 144.355 89.022C145.381 88.4207 146.547 88.12 147.853 88.12C148.953 88.12 149.906 88.3253 150.713 88.736C151.519 89.1467 152.143 89.7407 152.583 90.518C153.037 91.2807 153.265 92.1973 153.265 93.268C153.265 93.5467 153.25 93.8327 153.221 94.126C153.191 94.4193 153.147 94.6907 153.089 94.94H143.123L143.431 93.114H151.791L150.669 93.73C150.786 92.982 150.735 92.3587 150.515 91.86C150.295 91.3613 149.943 90.98 149.459 90.716C148.975 90.452 148.395 90.32 147.721 90.32C146.914 90.32 146.21 90.5107 145.609 90.892C145.022 91.2587 144.567 91.7867 144.245 92.476C143.922 93.1507 143.761 93.9427 143.761 94.852C143.761 95.8053 144.032 96.5387 144.575 97.052C145.132 97.5653 145.99 97.822 147.149 97.822C147.809 97.822 148.439 97.7193 149.041 97.514C149.642 97.294 150.141 96.9933 150.537 96.612L151.681 98.526C151.065 99.0687 150.331 99.4793 149.481 99.758C148.645 100.022 147.772 100.154 146.863 100.154ZM152.784 99.978L153.4 97.668C153.503 97.6827 153.598 97.6973 153.686 97.712C153.774 97.7267 153.855 97.734 153.928 97.734C154.456 97.734 154.896 97.5213 155.248 97.096C155.6 96.656 155.908 96.062 156.172 95.314C156.436 94.5513 156.685 93.6933 156.92 92.74L158.02 88.252H167.524L165.17 100H162.42L164.444 89.814L164.972 90.584H159.362L160.088 89.77L159.318 92.916C159.025 94.104 158.724 95.1527 158.416 96.062C158.108 96.9713 157.763 97.734 157.382 98.35C157.001 98.966 156.568 99.4353 156.084 99.758C155.6 100.066 155.028 100.22 154.368 100.22C154.089 100.22 153.833 100.198 153.598 100.154C153.349 100.11 153.077 100.051 152.784 99.978ZM176.177 92.102C177.526 92.102 178.546 92.3807 179.235 92.938C179.924 93.4807 180.269 94.2947 180.269 95.38C180.269 96.3187 180.034 97.1327 179.565 97.822C179.096 98.5113 178.428 99.0467 177.563 99.428C176.712 99.8093 175.7 100 174.527 100H168.895L171.249 88.252H173.977L173.229 92.102H176.177ZM174.527 97.998C175.128 97.998 175.649 97.9027 176.089 97.712C176.529 97.5067 176.874 97.228 177.123 96.876C177.372 96.5093 177.497 96.084 177.497 95.6C177.497 94.544 176.786 94.016 175.363 94.016H172.833L172.063 97.998H174.527ZM181.828 100L184.182 88.252H186.91L185.964 93.026H191.882L192.828 88.252H195.578L193.246 100H190.496L191.42 95.358H185.502L184.578 100H181.828ZM202.278 100.154C201.325 100.154 200.452 99.9487 199.66 99.538C198.883 99.1273 198.259 98.5407 197.79 97.778C197.335 97.0007 197.108 96.0693 197.108 94.984C197.108 93.9867 197.269 93.07 197.592 92.234C197.929 91.398 198.399 90.672 199 90.056C199.601 89.44 200.298 88.9633 201.09 88.626C201.897 88.2887 202.777 88.12 203.73 88.12C204.713 88.12 205.556 88.296 206.26 88.648C206.979 89 207.521 89.5353 207.888 90.254C208.255 90.958 208.423 91.838 208.394 92.894C208.365 94.346 208.101 95.622 207.602 96.722C207.103 97.8073 206.407 98.6507 205.512 99.252C204.617 99.8533 203.539 100.154 202.278 100.154ZM202.982 97.8C203.774 97.8 204.471 97.6167 205.072 97.25C205.673 96.8687 206.15 96.348 206.502 95.688C206.854 95.028 207.03 94.2653 207.03 93.4C207.03 92.4907 206.759 91.772 206.216 91.244C205.673 90.716 204.911 90.452 203.928 90.452C203.151 90.452 202.454 90.6427 201.838 91.024C201.237 91.3907 200.76 91.904 200.408 92.564C200.056 93.224 199.88 93.9867 199.88 94.852C199.88 95.7613 200.151 96.48 200.694 97.008C201.237 97.536 201.999 97.8 202.982 97.8ZM205.864 100L206.392 97.316L207.14 94.192L207.514 91.046L208.064 88.252H210.814L208.482 100H205.864ZM30.7192 125.724L32.3472 117.584H27.8372L27.3752 119.564C27.2138 120.253 27.0452 120.906 26.8692 121.522C26.6932 122.138 26.4878 122.703 26.2532 123.216C26.0332 123.715 25.7692 124.133 25.4612 124.47C25.1678 124.807 24.8012 125.02 24.3612 125.108L21.5452 124.668C21.9852 124.668 22.3738 124.521 22.7112 124.228C23.0485 123.935 23.3492 123.531 23.6132 123.018C23.8918 122.49 24.1412 121.896 24.3612 121.236C24.5812 120.561 24.7792 119.872 24.9552 119.168L25.8792 115.252H35.5592L33.4692 125.724H30.7192ZM20.2472 129.618L21.2152 124.668H35.4272L34.4372 129.618H31.8632L32.3912 127H23.3272L22.7992 129.618H20.2472ZM35.6618 126.978L36.2778 124.668C36.3804 124.683 36.4758 124.697 36.5638 124.712C36.6518 124.727 36.7324 124.734 36.8058 124.734C37.3338 124.734 37.7738 124.521 38.1258 124.096C38.4778 123.656 38.7858 123.062 39.0498 122.314C39.3138 121.551 39.5631 120.693 39.7978 119.74L40.8978 115.252H50.4018L48.0478 127H45.2978L47.3218 116.814L47.8498 117.584H42.2398L42.9658 116.77L42.1958 119.916C41.9024 121.104 41.6018 122.153 41.2938 123.062C40.9858 123.971 40.6411 124.734 40.2598 125.35C39.8784 125.966 39.4458 126.435 38.9618 126.758C38.4778 127.066 37.9058 127.22 37.2458 127.22C36.9671 127.22 36.7104 127.198 36.4758 127.154C36.2264 127.11 35.9551 127.051 35.6618 126.978ZM59.2748 127L60.0448 122.93L60.3748 123.568H56.8988C55.4468 123.568 54.3248 123.231 53.5328 122.556C52.7555 121.881 52.3668 121.001 52.3668 119.916C52.3668 118.449 52.9168 117.305 54.0168 116.484C55.1315 115.663 56.6495 115.252 58.5708 115.252H64.0488L61.7168 127H59.2748ZM50.8268 127L54.8968 122.512H57.6908L53.8848 127H50.8268ZM60.2208 122.16L61.2988 116.726L61.5628 117.562H58.3508C57.3535 117.562 56.5762 117.76 56.0188 118.156C55.4762 118.537 55.2048 119.109 55.2048 119.872C55.2048 120.957 55.9308 121.5 57.3828 121.5H60.7268L60.2208 122.16ZM76.8415 127.154C75.8881 127.154 75.0155 126.949 74.2235 126.538C73.4461 126.127 72.8228 125.541 72.3535 124.778C71.8988 124.001 71.6715 123.069 71.6715 121.984C71.6715 120.987 71.8328 120.07 72.1555 119.234C72.4928 118.398 72.9621 117.672 73.5635 117.056C74.1648 116.44 74.8615 115.963 75.6535 115.626C76.4601 115.289 77.3401 115.12 78.2935 115.12C79.2761 115.12 80.1195 115.296 80.8235 115.648C81.5421 116 82.0848 116.535 82.4515 117.254C82.8181 117.958 82.9868 118.838 82.9575 119.894C82.9281 121.346 82.6641 122.622 82.1655 123.722C81.6668 124.807 80.9701 125.651 80.0755 126.252C79.1808 126.853 78.1028 127.154 76.8415 127.154ZM77.5455 124.8C78.3375 124.8 79.0341 124.617 79.6355 124.25C80.2368 123.869 80.7135 123.348 81.0655 122.688C81.4175 122.028 81.5935 121.265 81.5935 120.4C81.5935 119.491 81.3221 118.772 80.7795 118.244C80.2368 117.716 79.4741 117.452 78.4915 117.452C77.7141 117.452 77.0175 117.643 76.4015 118.024C75.8001 118.391 75.3235 118.904 74.9715 119.564C74.6195 120.224 74.4435 120.987 74.4435 121.852C74.4435 122.761 74.7148 123.48 75.2575 124.008C75.8001 124.536 76.5628 124.8 77.5455 124.8ZM80.4275 127L80.9555 124.316L81.7035 121.192L82.0775 118.046L82.6275 115.252H85.3775L83.0455 127H80.4275ZM87.1889 131.422C86.6022 131.422 86.0302 131.327 85.4729 131.136C84.9009 130.945 84.4462 130.696 84.1089 130.388L85.4729 128.386C85.7222 128.606 86.0009 128.782 86.3089 128.914C86.6315 129.061 86.9982 129.134 87.4089 129.134C87.8635 129.134 88.2669 129.009 88.6189 128.76C88.9855 128.525 89.3522 128.115 89.7189 127.528L90.7529 125.922L91.0169 125.636L97.4849 115.252H100.235L92.1389 128.034C91.5962 128.885 91.0755 129.559 90.5769 130.058C90.0782 130.557 89.5575 130.909 89.0149 131.114C88.4869 131.319 87.8782 131.422 87.1889 131.422ZM90.2029 127.418L87.3209 115.252H90.0709L92.3809 125.394L90.2029 127.418ZM107.354 125.724L108.982 117.584H104.472L104.01 119.564C103.849 120.253 103.68 120.906 103.504 121.522C103.328 122.138 103.123 122.703 102.888 123.216C102.668 123.715 102.404 124.133 102.096 124.47C101.803 124.807 101.436 125.02 100.996 125.108L98.1799 124.668C98.6199 124.668 99.0086 124.521 99.3459 124.228C99.6833 123.935 99.9839 123.531 100.248 123.018C100.527 122.49 100.776 121.896 100.996 121.236C101.216 120.561 101.414 119.872 101.59 119.168L102.514 115.252H112.194L110.104 125.724H107.354ZM96.8819 129.618L97.8499 124.668H112.062L111.072 129.618H108.498L109.026 127H99.9619L99.4339 129.618H96.8819ZM114.035 127L116.389 115.252H119.161L117.555 123.216L125.541 115.252H128.159L125.805 127H123.011L124.661 119.014L116.675 127H114.035ZM131.945 127L133.925 116.924L134.431 117.584H129.701L130.163 115.252H141.185L140.701 117.584H135.905L136.675 116.924L134.695 127H131.945ZM146.162 127.154C145.018 127.154 144.013 126.941 143.148 126.516C142.297 126.076 141.637 125.475 141.168 124.712C140.699 123.935 140.464 123.025 140.464 121.984C140.464 120.664 140.765 119.491 141.366 118.464C141.967 117.423 142.789 116.609 143.83 116.022C144.886 115.421 146.089 115.12 147.438 115.12C148.597 115.12 149.601 115.333 150.452 115.758C151.317 116.169 151.985 116.763 152.454 117.54C152.923 118.303 153.158 119.212 153.158 120.268C153.158 121.573 152.857 122.747 152.256 123.788C151.655 124.829 150.826 125.651 149.77 126.252C148.729 126.853 147.526 127.154 146.162 127.154ZM146.338 124.8C147.13 124.8 147.827 124.617 148.428 124.25C149.029 123.869 149.506 123.348 149.858 122.688C150.21 122.028 150.386 121.265 150.386 120.4C150.386 119.491 150.115 118.772 149.572 118.244C149.029 117.716 148.267 117.452 147.284 117.452C146.507 117.452 145.81 117.643 145.194 118.024C144.593 118.391 144.116 118.904 143.764 119.564C143.412 120.224 143.236 120.987 143.236 121.852C143.236 122.776 143.507 123.502 144.05 124.03C144.593 124.543 145.355 124.8 146.338 124.8ZM161.789 127.154C160.806 127.154 159.956 126.978 159.237 126.626C158.518 126.259 157.976 125.724 157.609 125.02C157.242 124.301 157.074 123.414 157.103 122.358C157.132 120.891 157.396 119.615 157.895 118.53C158.394 117.445 159.09 116.609 159.985 116.022C160.894 115.421 161.972 115.12 163.219 115.12C164.187 115.12 165.06 115.325 165.837 115.736C166.614 116.132 167.23 116.719 167.685 117.496C168.154 118.259 168.389 119.183 168.389 120.268C168.389 121.265 168.22 122.182 167.883 123.018C167.56 123.854 167.098 124.58 166.497 125.196C165.896 125.812 165.192 126.296 164.385 126.648C163.593 126.985 162.728 127.154 161.789 127.154ZM153.825 131.268L157.015 115.252H159.633L159.105 117.936L158.379 121.06L157.983 124.206L156.575 131.268H153.825ZM161.569 124.8C162.361 124.8 163.058 124.617 163.659 124.25C164.26 123.869 164.737 123.348 165.089 122.688C165.441 122.028 165.617 121.265 165.617 120.4C165.617 119.491 165.346 118.772 164.803 118.244C164.26 117.716 163.498 117.452 162.515 117.452C161.738 117.452 161.041 117.643 160.425 118.024C159.824 118.391 159.347 118.904 158.995 119.564C158.643 120.224 158.467 120.987 158.467 121.852C158.467 122.761 158.738 123.48 159.281 124.008C159.824 124.536 160.586 124.8 161.569 124.8ZM169.958 127L172.312 115.252H175.084L173.478 123.216L181.464 115.252H184.082L181.728 127H178.934L180.584 119.014L172.598 127H169.958ZM185.449 127L187.803 115.252H190.575L188.969 123.216L196.955 115.252H199.573L197.219 127H194.425L196.075 119.014L188.089 127H185.449Z" fill="white"/>
</svg>
