<svg width="650" height="117" viewBox="0 0 650 117" fill="none" xmlns="http://www.w3.org/2000/svg">
<path d="M3.936 93L17.376 25.8H43.296C51.424 25.8 57.696 27.592 62.112 31.176C66.592 34.76 68.832 39.72 68.832 46.056C68.832 51.752 67.52 56.68 64.896 60.84C62.336 64.936 58.656 68.104 53.856 70.344C49.056 72.52 43.36 73.608 36.768 73.608H14.88L21.504 67.656L16.416 93H3.936ZM21.216 69.096L16.8 63.048H37.248C43.264 63.048 47.936 61.704 51.264 59.016C54.592 56.328 56.256 52.392 56.256 47.208C56.256 43.56 55.008 40.84 52.512 39.048C50.08 37.256 46.56 36.36 41.952 36.36H22.464L28.992 30.12L21.216 69.096ZM89.9123 93.672C85.4323 93.672 81.2403 93.128 77.3363 92.04C73.4323 90.952 70.4243 89.64 68.3122 88.104L73.3043 78.888C75.4163 80.36 78.0403 81.576 81.1763 82.536C84.3763 83.432 87.7043 83.88 91.1603 83.88C95.1283 83.88 98.0403 83.336 99.8963 82.248C101.816 81.16 102.776 79.656 102.776 77.736C102.776 76.328 102.104 75.272 100.76 74.568C99.4163 73.864 97.6883 73.288 95.5763 72.84C93.5283 72.392 91.2883 71.912 88.8563 71.4C86.4883 70.888 84.2483 70.184 82.1363 69.288C80.0883 68.392 78.3923 67.08 77.0483 65.352C75.7043 63.624 75.0323 61.32 75.0323 58.44C75.0323 54.792 76.0563 51.688 78.1043 49.128C80.1523 46.568 83.0003 44.616 86.6483 43.272C90.3603 41.864 94.6163 41.16 99.4163 41.16C102.872 41.16 106.264 41.544 109.592 42.312C112.92 43.08 115.672 44.168 117.848 45.576L113.432 54.792C111.128 53.32 108.632 52.296 105.944 51.72C103.32 51.144 100.76 50.856 98.2643 50.856C94.3603 50.856 91.4483 51.464 89.5283 52.68C87.6723 53.832 86.7443 55.304 86.7443 57.096C86.7443 58.504 87.4163 59.592 88.7603 60.36C90.1043 61.128 91.8003 61.768 93.8483 62.28C95.9603 62.728 98.2003 63.208 100.568 63.72C103 64.168 105.24 64.84 107.288 65.736C109.4 66.632 111.128 67.944 112.472 69.672C113.816 71.336 114.488 73.576 114.488 76.392C114.488 80.104 113.432 83.272 111.32 85.896C109.272 88.456 106.392 90.408 102.68 91.752C98.9683 93.032 94.7123 93.672 89.9123 93.672ZM122.253 112.296C119.693 112.296 117.197 111.88 114.765 111.048C112.269 110.216 110.285 109.128 108.813 107.784L114.765 99.048C115.853 100.008 117.069 100.776 118.413 101.352C119.821 101.992 121.421 102.312 123.213 102.312C125.197 102.312 126.957 101.768 128.493 100.68C130.093 99.656 131.693 97.864 133.293 95.304L137.805 88.296L138.957 87.048L167.181 41.736H179.181L143.853 97.512C141.485 101.224 139.213 104.168 137.037 106.344C134.861 108.52 132.589 110.056 130.221 110.952C127.917 111.848 125.261 112.296 122.253 112.296ZM135.405 94.824L122.829 41.736H134.829L144.909 85.992L135.405 94.824ZM200.635 93.672C195.579 93.672 191.131 92.744 187.291 90.888C183.515 88.968 180.603 86.344 178.555 83.016C176.507 79.624 175.483 75.656 175.483 71.112C175.483 65.352 176.795 60.232 179.419 55.752C182.043 51.208 185.659 47.656 190.267 45.096C194.875 42.472 200.187 41.16 206.203 41.16C211.387 41.16 215.835 42.184 219.547 44.232C223.323 46.216 226.235 49.192 228.283 53.16L218.011 58.44C216.859 56.008 215.195 54.216 213.019 53.064C210.907 51.912 208.315 51.336 205.243 51.336C201.915 51.336 198.907 52.168 196.219 53.832C193.531 55.432 191.419 57.672 189.883 60.552C188.347 63.432 187.579 66.76 187.579 70.536C187.579 74.504 188.763 77.64 191.131 79.944C193.499 82.248 196.859 83.4 201.211 83.4C204.027 83.4 206.651 82.824 209.083 81.672C211.515 80.52 213.563 78.728 215.227 76.296L224.059 82.248C221.691 85.832 218.427 88.648 214.267 90.696C210.107 92.68 205.563 93.672 200.635 93.672ZM268.427 41.16C272.843 41.16 276.555 42.056 279.563 43.848C282.635 45.64 284.811 48.296 286.091 51.816C287.371 55.272 287.499 59.528 286.475 64.584L280.811 93H268.811L274.379 64.872C275.211 60.712 274.827 57.48 273.227 55.176C271.627 52.808 268.715 51.624 264.491 51.624C260.075 51.624 256.427 52.84 253.547 55.272C250.667 57.704 248.715 61.416 247.691 66.408L242.315 93H230.315L244.523 21.768H256.523L249.611 56.328L247.115 51.72C249.547 48.072 252.587 45.416 256.235 43.752C259.947 42.024 264.011 41.16 268.427 41.16ZM321.472 93.672C316.48 93.672 312.096 92.744 308.32 90.888C304.608 88.968 301.728 86.344 299.68 83.016C297.632 79.624 296.608 75.656 296.608 71.112C296.608 65.352 297.92 60.232 300.544 55.752C303.168 51.208 306.752 47.656 311.296 45.096C315.904 42.472 321.152 41.16 327.04 41.16C332.096 41.16 336.48 42.088 340.192 43.944C343.968 45.736 346.88 48.328 348.928 51.72C350.976 55.048 352 59.016 352 63.624C352 69.32 350.688 74.44 348.064 78.984C345.44 83.528 341.824 87.112 337.216 89.736C332.672 92.36 327.424 93.672 321.472 93.672ZM322.24 83.4C325.696 83.4 328.736 82.6 331.36 81C333.984 79.336 336.064 77.064 337.6 74.184C339.136 71.304 339.904 67.976 339.904 64.2C339.904 60.232 338.72 57.096 336.352 54.792C333.984 52.488 330.656 51.336 326.368 51.336C322.976 51.336 319.936 52.168 317.248 53.832C314.624 55.432 312.544 57.672 311.008 60.552C309.472 63.432 308.704 66.76 308.704 70.536C308.704 74.568 309.888 77.736 312.256 80.04C314.624 82.28 317.952 83.4 322.24 83.4ZM359.155 93L372.595 25.8H403.603C410.643 25.8 416.051 27.08 419.827 29.64C423.603 32.2 425.491 35.944 425.491 40.872C425.491 45.096 424.403 48.648 422.227 51.528C420.115 54.408 417.363 56.584 413.971 58.056C410.643 59.528 407.059 60.264 403.219 60.264L405.619 57C410.675 57 414.771 58.28 417.907 60.84C421.043 63.336 422.611 67.016 422.611 71.88C422.611 76.552 421.331 80.456 418.771 83.592C416.275 86.728 412.787 89.096 408.307 90.696C403.891 92.232 398.739 93 392.851 93H359.155ZM373.555 83.208H393.715C398.899 83.208 402.931 82.248 405.811 80.328C408.691 78.408 410.131 75.592 410.131 71.88C410.131 68.872 409.075 66.792 406.963 65.64C404.851 64.424 401.875 63.816 398.035 63.816H375.667L377.587 54.12H397.075C400.147 54.12 402.835 53.736 405.139 52.968C407.507 52.136 409.299 50.888 410.515 49.224C411.795 47.496 412.435 45.416 412.435 42.984C412.435 40.424 411.411 38.568 409.363 37.416C407.379 36.2 404.531 35.592 400.819 35.592H383.059L373.555 83.208ZM456.762 93.672C451.642 93.672 447.194 92.744 443.418 90.888C439.642 88.968 436.698 86.344 434.586 83.016C432.538 79.624 431.514 75.656 431.514 71.112C431.514 65.288 432.794 60.136 435.354 55.656C437.914 51.176 441.402 47.656 445.818 45.096C450.298 42.472 455.386 41.16 461.082 41.16C465.882 41.16 470.042 42.056 473.562 43.848C477.082 45.64 479.802 48.232 481.722 51.624C483.706 54.952 484.698 58.952 484.698 63.624C484.698 64.84 484.634 66.088 484.506 67.368C484.378 68.648 484.186 69.832 483.93 70.92H440.442L441.786 62.952H478.266L473.37 65.64C473.882 62.376 473.658 59.656 472.698 57.48C471.738 55.304 470.202 53.64 468.09 52.488C465.978 51.336 463.45 50.76 460.506 50.76C456.986 50.76 453.914 51.592 451.29 53.256C448.73 54.856 446.746 57.16 445.338 60.168C443.93 63.112 443.226 66.568 443.226 70.536C443.226 74.696 444.41 77.896 446.778 80.136C449.21 82.376 452.954 83.496 458.01 83.496C460.89 83.496 463.642 83.048 466.266 82.152C468.89 81.192 471.066 79.88 472.794 78.216L477.786 86.568C475.098 88.936 471.898 90.728 468.186 91.944C464.538 93.096 460.73 93.672 456.762 93.672ZM513.512 93.672C509.352 93.672 505.544 92.776 502.088 90.984C498.696 89.192 495.976 86.632 493.928 83.304C491.944 79.912 490.952 75.848 490.952 71.112C490.952 66.76 491.656 62.76 493.064 59.112C494.536 55.464 496.584 52.296 499.208 49.608C501.832 46.92 504.872 44.84 508.328 43.368C511.848 41.896 515.688 41.16 519.848 41.16C524.136 41.16 527.816 41.928 530.888 43.464C534.024 45 536.392 47.336 537.992 50.472C539.592 53.544 540.328 57.384 540.2 61.992C540.072 68.328 538.92 73.896 536.744 78.696C534.568 83.432 531.528 87.112 527.624 89.736C523.72 92.36 519.016 93.672 513.512 93.672ZM516.584 83.4C520.04 83.4 523.08 82.6 525.704 81C528.328 79.336 530.408 77.064 531.944 74.184C533.48 71.304 534.248 67.976 534.248 64.2C534.248 60.232 533.064 57.096 530.696 54.792C528.328 52.488 525 51.336 520.712 51.336C517.32 51.336 514.28 52.168 511.592 53.832C508.968 55.432 506.888 57.672 505.352 60.552C503.816 63.432 503.048 66.76 503.048 70.536C503.048 74.504 504.232 77.64 506.6 79.944C508.968 82.248 512.296 83.4 516.584 83.4ZM529.16 93L531.464 81.288L534.728 67.656L536.36 53.928L538.76 41.736H550.76L540.583 93H529.16ZM575.484 93.672C572.156 93.672 569.276 92.968 566.844 91.56C564.476 90.088 562.748 88.04 561.66 85.416C560.636 82.728 560.476 79.56 561.18 75.912L570.3 30.408H582.3L573.18 75.816C572.796 78.184 573.052 80.104 573.948 81.576C574.844 83.048 576.54 83.784 579.036 83.784C580.188 83.784 581.34 83.624 582.492 83.304C583.708 82.92 584.796 82.408 585.756 81.768L587.868 90.6C586.076 91.752 584.092 92.552 581.916 93C579.74 93.448 577.596 93.672 575.484 93.672ZM557.724 51.72L559.644 42.12H593.724L591.804 51.72H557.724ZM614.444 93.672C609.964 93.672 605.772 93.128 601.868 92.04C597.964 90.952 594.956 89.64 592.843 88.104L597.836 78.888C599.948 80.36 602.572 81.576 605.708 82.536C608.908 83.432 612.236 83.88 615.692 83.88C619.66 83.88 622.572 83.336 624.428 82.248C626.348 81.16 627.308 79.656 627.308 77.736C627.308 76.328 626.636 75.272 625.292 74.568C623.948 73.864 622.22 73.288 620.108 72.84C618.06 72.392 615.82 71.912 613.388 71.4C611.02 70.888 608.78 70.184 606.668 69.288C604.62 68.392 602.924 67.08 601.58 65.352C600.236 63.624 599.564 61.32 599.564 58.44C599.564 54.792 600.588 51.688 602.636 49.128C604.684 46.568 607.532 44.616 611.18 43.272C614.892 41.864 619.148 41.16 623.948 41.16C627.404 41.16 630.796 41.544 634.124 42.312C637.452 43.08 640.204 44.168 642.38 45.576L637.964 54.792C635.66 53.32 633.164 52.296 630.476 51.72C627.852 51.144 625.292 50.856 622.796 50.856C618.892 50.856 615.98 51.464 614.06 52.68C612.204 53.832 611.276 55.304 611.276 57.096C611.276 58.504 611.948 59.592 613.292 60.36C614.636 61.128 616.332 61.768 618.38 62.28C620.492 62.728 622.732 63.208 625.1 63.72C627.532 64.168 629.772 64.84 631.82 65.736C633.932 66.632 635.66 67.944 637.004 69.672C638.348 71.336 639.02 73.576 639.02 76.392C639.02 80.104 637.964 83.272 635.852 85.896C633.804 88.456 630.924 90.408 627.212 91.752C623.5 93.032 619.244 93.672 614.444 93.672Z" fill="#D868FF"/>
<path d="M9.936 93L23.376 25.8H49.296C57.424 25.8 63.696 27.592 68.112 31.176C72.592 34.76 74.832 39.72 74.832 46.056C74.832 51.752 73.52 56.68 70.896 60.84C68.336 64.936 64.656 68.104 59.856 70.344C55.056 72.52 49.36 73.608 42.768 73.608H20.88L27.504 67.656L22.416 93H9.936ZM27.216 69.096L22.8 63.048H43.248C49.264 63.048 53.936 61.704 57.264 59.016C60.592 56.328 62.256 52.392 62.256 47.208C62.256 43.56 61.008 40.84 58.512 39.048C56.08 37.256 52.56 36.36 47.952 36.36H28.464L34.992 30.12L27.216 69.096ZM95.9123 93.672C91.4323 93.672 87.2403 93.128 83.3363 92.04C79.4323 90.952 76.4243 89.64 74.3122 88.104L79.3043 78.888C81.4163 80.36 84.0403 81.576 87.1763 82.536C90.3763 83.432 93.7043 83.88 97.1603 83.88C101.128 83.88 104.04 83.336 105.896 82.248C107.816 81.16 108.776 79.656 108.776 77.736C108.776 76.328 108.104 75.272 106.76 74.568C105.416 73.864 103.688 73.288 101.576 72.84C99.5283 72.392 97.2883 71.912 94.8563 71.4C92.4883 70.888 90.2483 70.184 88.1363 69.288C86.0883 68.392 84.3923 67.08 83.0483 65.352C81.7043 63.624 81.0323 61.32 81.0323 58.44C81.0323 54.792 82.0563 51.688 84.1043 49.128C86.1523 46.568 89.0003 44.616 92.6483 43.272C96.3603 41.864 100.616 41.16 105.416 41.16C108.872 41.16 112.264 41.544 115.592 42.312C118.92 43.08 121.672 44.168 123.848 45.576L119.432 54.792C117.128 53.32 114.632 52.296 111.944 51.72C109.32 51.144 106.76 50.856 104.264 50.856C100.36 50.856 97.4483 51.464 95.5283 52.68C93.6723 53.832 92.7443 55.304 92.7443 57.096C92.7443 58.504 93.4163 59.592 94.7603 60.36C96.1043 61.128 97.8003 61.768 99.8483 62.28C101.96 62.728 104.2 63.208 106.568 63.72C109 64.168 111.24 64.84 113.288 65.736C115.4 66.632 117.128 67.944 118.472 69.672C119.816 71.336 120.488 73.576 120.488 76.392C120.488 80.104 119.432 83.272 117.32 85.896C115.272 88.456 112.392 90.408 108.68 91.752C104.968 93.032 100.712 93.672 95.9123 93.672ZM128.253 112.296C125.693 112.296 123.197 111.88 120.765 111.048C118.269 110.216 116.285 109.128 114.813 107.784L120.765 99.048C121.853 100.008 123.069 100.776 124.413 101.352C125.821 101.992 127.421 102.312 129.213 102.312C131.197 102.312 132.957 101.768 134.493 100.68C136.093 99.656 137.693 97.864 139.293 95.304L143.805 88.296L144.957 87.048L173.181 41.736H185.181L149.853 97.512C147.485 101.224 145.213 104.168 143.037 106.344C140.861 108.52 138.589 110.056 136.221 110.952C133.917 111.848 131.261 112.296 128.253 112.296ZM141.405 94.824L128.829 41.736H140.829L150.909 85.992L141.405 94.824ZM206.635 93.672C201.579 93.672 197.131 92.744 193.291 90.888C189.515 88.968 186.603 86.344 184.555 83.016C182.507 79.624 181.483 75.656 181.483 71.112C181.483 65.352 182.795 60.232 185.419 55.752C188.043 51.208 191.659 47.656 196.267 45.096C200.875 42.472 206.187 41.16 212.203 41.16C217.387 41.16 221.835 42.184 225.547 44.232C229.323 46.216 232.235 49.192 234.283 53.16L224.011 58.44C222.859 56.008 221.195 54.216 219.019 53.064C216.907 51.912 214.315 51.336 211.243 51.336C207.915 51.336 204.907 52.168 202.219 53.832C199.531 55.432 197.419 57.672 195.883 60.552C194.347 63.432 193.579 66.76 193.579 70.536C193.579 74.504 194.763 77.64 197.131 79.944C199.499 82.248 202.859 83.4 207.211 83.4C210.027 83.4 212.651 82.824 215.083 81.672C217.515 80.52 219.563 78.728 221.227 76.296L230.059 82.248C227.691 85.832 224.427 88.648 220.267 90.696C216.107 92.68 211.563 93.672 206.635 93.672ZM274.427 41.16C278.843 41.16 282.555 42.056 285.563 43.848C288.635 45.64 290.811 48.296 292.091 51.816C293.371 55.272 293.499 59.528 292.475 64.584L286.811 93H274.811L280.379 64.872C281.211 60.712 280.827 57.48 279.227 55.176C277.627 52.808 274.715 51.624 270.491 51.624C266.075 51.624 262.427 52.84 259.547 55.272C256.667 57.704 254.715 61.416 253.691 66.408L248.315 93H236.315L250.523 21.768H262.523L255.611 56.328L253.115 51.72C255.547 48.072 258.587 45.416 262.235 43.752C265.947 42.024 270.011 41.16 274.427 41.16ZM327.472 93.672C322.48 93.672 318.096 92.744 314.32 90.888C310.608 88.968 307.728 86.344 305.68 83.016C303.632 79.624 302.608 75.656 302.608 71.112C302.608 65.352 303.92 60.232 306.544 55.752C309.168 51.208 312.752 47.656 317.296 45.096C321.904 42.472 327.152 41.16 333.04 41.16C338.096 41.16 342.48 42.088 346.192 43.944C349.968 45.736 352.88 48.328 354.928 51.72C356.976 55.048 358 59.016 358 63.624C358 69.32 356.688 74.44 354.064 78.984C351.44 83.528 347.824 87.112 343.216 89.736C338.672 92.36 333.424 93.672 327.472 93.672ZM328.24 83.4C331.696 83.4 334.736 82.6 337.36 81C339.984 79.336 342.064 77.064 343.6 74.184C345.136 71.304 345.904 67.976 345.904 64.2C345.904 60.232 344.72 57.096 342.352 54.792C339.984 52.488 336.656 51.336 332.368 51.336C328.976 51.336 325.936 52.168 323.248 53.832C320.624 55.432 318.544 57.672 317.008 60.552C315.472 63.432 314.704 66.76 314.704 70.536C314.704 74.568 315.888 77.736 318.256 80.04C320.624 82.28 323.952 83.4 328.24 83.4ZM365.155 93L378.595 25.8H409.603C416.643 25.8 422.051 27.08 425.827 29.64C429.603 32.2 431.491 35.944 431.491 40.872C431.491 45.096 430.403 48.648 428.227 51.528C426.115 54.408 423.363 56.584 419.971 58.056C416.643 59.528 413.059 60.264 409.219 60.264L411.619 57C416.675 57 420.771 58.28 423.907 60.84C427.043 63.336 428.611 67.016 428.611 71.88C428.611 76.552 427.331 80.456 424.771 83.592C422.275 86.728 418.787 89.096 414.307 90.696C409.891 92.232 404.739 93 398.851 93H365.155ZM379.555 83.208H399.715C404.899 83.208 408.931 82.248 411.811 80.328C414.691 78.408 416.131 75.592 416.131 71.88C416.131 68.872 415.075 66.792 412.963 65.64C410.851 64.424 407.875 63.816 404.035 63.816H381.667L383.587 54.12H403.075C406.147 54.12 408.835 53.736 411.139 52.968C413.507 52.136 415.299 50.888 416.515 49.224C417.795 47.496 418.435 45.416 418.435 42.984C418.435 40.424 417.411 38.568 415.363 37.416C413.379 36.2 410.531 35.592 406.819 35.592H389.059L379.555 83.208ZM462.762 93.672C457.642 93.672 453.194 92.744 449.418 90.888C445.642 88.968 442.698 86.344 440.586 83.016C438.538 79.624 437.514 75.656 437.514 71.112C437.514 65.288 438.794 60.136 441.354 55.656C443.914 51.176 447.402 47.656 451.818 45.096C456.298 42.472 461.386 41.16 467.082 41.16C471.882 41.16 476.042 42.056 479.562 43.848C483.082 45.64 485.802 48.232 487.722 51.624C489.706 54.952 490.698 58.952 490.698 63.624C490.698 64.84 490.634 66.088 490.506 67.368C490.378 68.648 490.186 69.832 489.93 70.92H446.442L447.786 62.952H484.266L479.37 65.64C479.882 62.376 479.658 59.656 478.698 57.48C477.738 55.304 476.202 53.64 474.09 52.488C471.978 51.336 469.45 50.76 466.506 50.76C462.986 50.76 459.914 51.592 457.29 53.256C454.73 54.856 452.746 57.16 451.338 60.168C449.93 63.112 449.226 66.568 449.226 70.536C449.226 74.696 450.41 77.896 452.778 80.136C455.21 82.376 458.954 83.496 464.01 83.496C466.89 83.496 469.642 83.048 472.266 82.152C474.89 81.192 477.066 79.88 478.794 78.216L483.786 86.568C481.098 88.936 477.898 90.728 474.186 91.944C470.538 93.096 466.73 93.672 462.762 93.672ZM519.512 93.672C515.352 93.672 511.544 92.776 508.088 90.984C504.696 89.192 501.976 86.632 499.928 83.304C497.944 79.912 496.952 75.848 496.952 71.112C496.952 66.76 497.656 62.76 499.064 59.112C500.536 55.464 502.584 52.296 505.208 49.608C507.832 46.92 510.872 44.84 514.328 43.368C517.848 41.896 521.688 41.16 525.848 41.16C530.136 41.16 533.816 41.928 536.888 43.464C540.024 45 542.392 47.336 543.992 50.472C545.592 53.544 546.328 57.384 546.2 61.992C546.072 68.328 544.92 73.896 542.744 78.696C540.568 83.432 537.528 87.112 533.624 89.736C529.72 92.36 525.016 93.672 519.512 93.672ZM522.584 83.4C526.04 83.4 529.08 82.6 531.704 81C534.328 79.336 536.408 77.064 537.944 74.184C539.48 71.304 540.248 67.976 540.248 64.2C540.248 60.232 539.064 57.096 536.696 54.792C534.328 52.488 531 51.336 526.712 51.336C523.32 51.336 520.28 52.168 517.592 53.832C514.968 55.432 512.888 57.672 511.352 60.552C509.816 63.432 509.048 66.76 509.048 70.536C509.048 74.504 510.232 77.64 512.6 79.944C514.968 82.248 518.296 83.4 522.584 83.4ZM535.16 93L537.464 81.288L540.728 67.656L542.36 53.928L544.76 41.736H556.76L546.583 93H535.16ZM581.484 93.672C578.156 93.672 575.276 92.968 572.844 91.56C570.476 90.088 568.748 88.04 567.66 85.416C566.636 82.728 566.476 79.56 567.18 75.912L576.3 30.408H588.3L579.18 75.816C578.796 78.184 579.052 80.104 579.948 81.576C580.844 83.048 582.54 83.784 585.036 83.784C586.188 83.784 587.34 83.624 588.492 83.304C589.708 82.92 590.796 82.408 591.756 81.768L593.868 90.6C592.076 91.752 590.092 92.552 587.916 93C585.74 93.448 583.596 93.672 581.484 93.672ZM563.724 51.72L565.644 42.12H599.724L597.804 51.72H563.724ZM620.444 93.672C615.964 93.672 611.772 93.128 607.868 92.04C603.964 90.952 600.956 89.64 598.843 88.104L603.836 78.888C605.948 80.36 608.572 81.576 611.708 82.536C614.908 83.432 618.236 83.88 621.692 83.88C625.66 83.88 628.572 83.336 630.428 82.248C632.348 81.16 633.308 79.656 633.308 77.736C633.308 76.328 632.636 75.272 631.292 74.568C629.948 73.864 628.22 73.288 626.108 72.84C624.06 72.392 621.82 71.912 619.388 71.4C617.02 70.888 614.78 70.184 612.668 69.288C610.62 68.392 608.924 67.08 607.58 65.352C606.236 63.624 605.564 61.32 605.564 58.44C605.564 54.792 606.588 51.688 608.636 49.128C610.684 46.568 613.532 44.616 617.18 43.272C620.892 41.864 625.148 41.16 629.948 41.16C633.404 41.16 636.796 41.544 640.124 42.312C643.452 43.08 646.204 44.168 648.38 45.576L643.964 54.792C641.66 53.32 639.164 52.296 636.476 51.72C633.852 51.144 631.292 50.856 628.796 50.856C624.892 50.856 621.98 51.464 620.06 52.68C618.204 53.832 617.276 55.304 617.276 57.096C617.276 58.504 617.948 59.592 619.292 60.36C620.636 61.128 622.332 61.768 624.38 62.28C626.492 62.728 628.732 63.208 631.1 63.72C633.532 64.168 635.772 64.84 637.82 65.736C639.932 66.632 641.66 67.944 643.004 69.672C644.348 71.336 645.02 73.576 645.02 76.392C645.02 80.104 643.964 83.272 641.852 85.896C639.804 88.456 636.924 90.408 633.212 91.752C629.5 93.032 625.244 93.672 620.444 93.672Z" fill="white"/>
</svg>
