<svg width="640" height="92" viewBox="0 0 640 92" fill="none" xmlns="http://www.w3.org/2000/svg">
<path d="M0.936 72L14.376 4.8H40.296C48.424 4.8 54.696 6.592 59.112 10.176C63.592 13.76 65.832 18.72 65.832 25.056C65.832 30.752 64.52 35.68 61.896 39.84C59.336 43.936 55.656 47.104 50.856 49.344C46.056 51.52 40.36 52.608 33.768 52.608H11.88L18.504 46.656L13.416 72H0.936ZM18.216 48.096L13.8 42.048H34.248C40.264 42.048 44.936 40.704 48.264 38.016C51.592 35.328 53.256 31.392 53.256 26.208C53.256 22.56 52.008 19.84 49.512 18.048C47.08 16.256 43.56 15.36 38.952 15.36H19.464L25.992 9.12L18.216 48.096ZM86.9123 72.672C82.4323 72.672 78.2403 72.128 74.3363 71.04C70.4323 69.952 67.4243 68.64 65.3122 67.104L70.3043 57.888C72.4163 59.36 75.0403 60.576 78.1763 61.536C81.3763 62.432 84.7043 62.88 88.1603 62.88C92.1283 62.88 95.0403 62.336 96.8963 61.248C98.8163 60.16 99.7763 58.656 99.7763 56.736C99.7763 55.328 99.1043 54.272 97.7603 53.568C96.4163 52.864 94.6883 52.288 92.5763 51.84C90.5283 51.392 88.2883 50.912 85.8563 50.4C83.4883 49.888 81.2483 49.184 79.1363 48.288C77.0883 47.392 75.3923 46.08 74.0483 44.352C72.7043 42.624 72.0323 40.32 72.0323 37.44C72.0323 33.792 73.0563 30.688 75.1043 28.128C77.1523 25.568 80.0003 23.616 83.6483 22.272C87.3603 20.864 91.6163 20.16 96.4163 20.16C99.8723 20.16 103.264 20.544 106.592 21.312C109.92 22.08 112.672 23.168 114.848 24.576L110.432 33.792C108.128 32.32 105.632 31.296 102.944 30.72C100.32 30.144 97.7603 29.856 95.2643 29.856C91.3603 29.856 88.4483 30.464 86.5283 31.68C84.6723 32.832 83.7443 34.304 83.7443 36.096C83.7443 37.504 84.4163 38.592 85.7603 39.36C87.1043 40.128 88.8003 40.768 90.8483 41.28C92.9603 41.728 95.2003 42.208 97.5683 42.72C100 43.168 102.24 43.84 104.288 44.736C106.4 45.632 108.128 46.944 109.472 48.672C110.816 50.336 111.488 52.576 111.488 55.392C111.488 59.104 110.432 62.272 108.32 64.896C106.272 67.456 103.392 69.408 99.6803 70.752C95.9683 72.032 91.7123 72.672 86.9123 72.672ZM119.253 91.296C116.693 91.296 114.197 90.88 111.765 90.048C109.269 89.216 107.285 88.128 105.813 86.784L111.765 78.048C112.853 79.008 114.069 79.776 115.413 80.352C116.821 80.992 118.421 81.312 120.213 81.312C122.197 81.312 123.957 80.768 125.493 79.68C127.093 78.656 128.693 76.864 130.293 74.304L134.805 67.296L135.957 66.048L164.181 20.736H176.181L140.853 76.512C138.485 80.224 136.213 83.168 134.037 85.344C131.861 87.52 129.589 89.056 127.221 89.952C124.917 90.848 122.261 91.296 119.253 91.296ZM132.405 73.824L119.829 20.736H131.829L141.909 64.992L132.405 73.824ZM197.635 72.672C192.579 72.672 188.131 71.744 184.291 69.888C180.515 67.968 177.603 65.344 175.555 62.016C173.507 58.624 172.483 54.656 172.483 50.112C172.483 44.352 173.795 39.232 176.419 34.752C179.043 30.208 182.659 26.656 187.267 24.096C191.875 21.472 197.187 20.16 203.203 20.16C208.387 20.16 212.835 21.184 216.547 23.232C220.323 25.216 223.235 28.192 225.283 32.16L215.011 37.44C213.859 35.008 212.195 33.216 210.019 32.064C207.907 30.912 205.315 30.336 202.243 30.336C198.915 30.336 195.907 31.168 193.219 32.832C190.531 34.432 188.419 36.672 186.883 39.552C185.347 42.432 184.579 45.76 184.579 49.536C184.579 53.504 185.763 56.64 188.131 58.944C190.499 61.248 193.859 62.4 198.211 62.4C201.027 62.4 203.651 61.824 206.083 60.672C208.515 59.52 210.563 57.728 212.227 55.296L221.059 61.248C218.691 64.832 215.427 67.648 211.267 69.696C207.107 71.68 202.563 72.672 197.635 72.672ZM265.427 20.16C269.843 20.16 273.555 21.056 276.563 22.848C279.635 24.64 281.811 27.296 283.091 30.816C284.371 34.272 284.499 38.528 283.475 43.584L277.811 72H265.811L271.379 43.872C272.211 39.712 271.827 36.48 270.227 34.176C268.627 31.808 265.715 30.624 261.491 30.624C257.075 30.624 253.427 31.84 250.547 34.272C247.667 36.704 245.715 40.416 244.691 45.408L239.315 72H227.315L241.523 0.767996H253.523L246.611 35.328L244.115 30.72C246.547 27.072 249.587 24.416 253.235 22.752C256.947 21.024 261.011 20.16 265.427 20.16ZM318.472 72.672C313.48 72.672 309.096 71.744 305.32 69.888C301.608 67.968 298.728 65.344 296.68 62.016C294.632 58.624 293.608 54.656 293.608 50.112C293.608 44.352 294.92 39.232 297.544 34.752C300.168 30.208 303.752 26.656 308.296 24.096C312.904 21.472 318.152 20.16 324.04 20.16C329.096 20.16 333.48 21.088 337.192 22.944C340.968 24.736 343.88 27.328 345.928 30.72C347.976 34.048 349 38.016 349 42.624C349 48.32 347.688 53.44 345.064 57.984C342.44 62.528 338.824 66.112 334.216 68.736C329.672 71.36 324.424 72.672 318.472 72.672ZM319.24 62.4C322.696 62.4 325.736 61.6 328.36 60C330.984 58.336 333.064 56.064 334.6 53.184C336.136 50.304 336.904 46.976 336.904 43.2C336.904 39.232 335.72 36.096 333.352 33.792C330.984 31.488 327.656 30.336 323.368 30.336C319.976 30.336 316.936 31.168 314.248 32.832C311.624 34.432 309.544 36.672 308.008 39.552C306.472 42.432 305.704 45.76 305.704 49.536C305.704 53.568 306.888 56.736 309.256 59.04C311.624 61.28 314.952 62.4 319.24 62.4ZM356.155 72L369.595 4.8H400.603C407.643 4.8 413.051 6.08 416.827 8.64C420.603 11.2 422.491 14.944 422.491 19.872C422.491 24.096 421.403 27.648 419.227 30.528C417.115 33.408 414.363 35.584 410.971 37.056C407.643 38.528 404.059 39.264 400.219 39.264L402.619 36C407.675 36 411.771 37.28 414.907 39.84C418.043 42.336 419.611 46.016 419.611 50.88C419.611 55.552 418.331 59.456 415.771 62.592C413.275 65.728 409.787 68.096 405.307 69.696C400.891 71.232 395.739 72 389.851 72H356.155ZM370.555 62.208H390.715C395.899 62.208 399.931 61.248 402.811 59.328C405.691 57.408 407.131 54.592 407.131 50.88C407.131 47.872 406.075 45.792 403.963 44.64C401.851 43.424 398.875 42.816 395.035 42.816H372.667L374.587 33.12H394.075C397.147 33.12 399.835 32.736 402.139 31.968C404.507 31.136 406.299 29.888 407.515 28.224C408.795 26.496 409.435 24.416 409.435 21.984C409.435 19.424 408.411 17.568 406.363 16.416C404.379 15.2 401.531 14.592 397.819 14.592H380.059L370.555 62.208ZM453.762 72.672C448.642 72.672 444.194 71.744 440.418 69.888C436.642 67.968 433.698 65.344 431.586 62.016C429.538 58.624 428.514 54.656 428.514 50.112C428.514 44.288 429.794 39.136 432.354 34.656C434.914 30.176 438.402 26.656 442.818 24.096C447.298 21.472 452.386 20.16 458.082 20.16C462.882 20.16 467.042 21.056 470.562 22.848C474.082 24.64 476.802 27.232 478.722 30.624C480.706 33.952 481.698 37.952 481.698 42.624C481.698 43.84 481.634 45.088 481.506 46.368C481.378 47.648 481.186 48.832 480.93 49.92H437.442L438.786 41.952H475.266L470.37 44.64C470.882 41.376 470.658 38.656 469.698 36.48C468.738 34.304 467.202 32.64 465.09 31.488C462.978 30.336 460.45 29.76 457.506 29.76C453.986 29.76 450.914 30.592 448.29 32.256C445.73 33.856 443.746 36.16 442.338 39.168C440.93 42.112 440.226 45.568 440.226 49.536C440.226 53.696 441.41 56.896 443.778 59.136C446.21 61.376 449.954 62.496 455.01 62.496C457.89 62.496 460.642 62.048 463.266 61.152C465.89 60.192 468.066 58.88 469.794 57.216L474.786 65.568C472.098 67.936 468.898 69.728 465.186 70.944C461.538 72.096 457.73 72.672 453.762 72.672ZM510.512 72.672C506.352 72.672 502.544 71.776 499.088 69.984C495.696 68.192 492.976 65.632 490.928 62.304C488.944 58.912 487.952 54.848 487.952 50.112C487.952 45.76 488.656 41.76 490.064 38.112C491.536 34.464 493.584 31.296 496.208 28.608C498.832 25.92 501.872 23.84 505.328 22.368C508.848 20.896 512.688 20.16 516.848 20.16C521.136 20.16 524.816 20.928 527.888 22.464C531.024 24 533.392 26.336 534.992 29.472C536.592 32.544 537.328 36.384 537.2 40.992C537.072 47.328 535.92 52.896 533.744 57.696C531.568 62.432 528.528 66.112 524.624 68.736C520.72 71.36 516.016 72.672 510.512 72.672ZM513.584 62.4C517.04 62.4 520.08 61.6 522.704 60C525.328 58.336 527.408 56.064 528.944 53.184C530.48 50.304 531.248 46.976 531.248 43.2C531.248 39.232 530.064 36.096 527.696 33.792C525.328 31.488 522 30.336 517.712 30.336C514.32 30.336 511.28 31.168 508.592 32.832C505.968 34.432 503.888 36.672 502.352 39.552C500.816 42.432 500.048 45.76 500.048 49.536C500.048 53.504 501.232 56.64 503.6 58.944C505.968 61.248 509.296 62.4 513.584 62.4ZM526.16 72L528.464 60.288L531.728 46.656L533.36 32.928L535.76 20.736H547.76L537.583 72H526.16ZM572.484 72.672C569.156 72.672 566.276 71.968 563.844 70.56C561.476 69.088 559.748 67.04 558.66 64.416C557.636 61.728 557.476 58.56 558.18 54.912L567.3 9.408H579.3L570.18 54.816C569.796 57.184 570.052 59.104 570.948 60.576C571.844 62.048 573.54 62.784 576.036 62.784C577.188 62.784 578.34 62.624 579.492 62.304C580.708 61.92 581.796 61.408 582.756 60.768L584.868 69.6C583.076 70.752 581.092 71.552 578.916 72C576.74 72.448 574.596 72.672 572.484 72.672ZM554.724 30.72L556.644 21.12H590.724L588.804 30.72H554.724ZM611.444 72.672C606.964 72.672 602.772 72.128 598.868 71.04C594.964 69.952 591.956 68.64 589.843 67.104L594.836 57.888C596.948 59.36 599.572 60.576 602.708 61.536C605.908 62.432 609.236 62.88 612.692 62.88C616.66 62.88 619.572 62.336 621.428 61.248C623.348 60.16 624.308 58.656 624.308 56.736C624.308 55.328 623.636 54.272 622.292 53.568C620.948 52.864 619.22 52.288 617.108 51.84C615.06 51.392 612.82 50.912 610.388 50.4C608.02 49.888 605.78 49.184 603.668 48.288C601.62 47.392 599.924 46.08 598.58 44.352C597.236 42.624 596.564 40.32 596.564 37.44C596.564 33.792 597.588 30.688 599.636 28.128C601.684 25.568 604.532 23.616 608.18 22.272C611.892 20.864 616.148 20.16 620.948 20.16C624.404 20.16 627.796 20.544 631.124 21.312C634.452 22.08 637.204 23.168 639.38 24.576L634.964 33.792C632.66 32.32 630.164 31.296 627.476 30.72C624.852 30.144 622.292 29.856 619.796 29.856C615.892 29.856 612.98 30.464 611.06 31.68C609.204 32.832 608.276 34.304 608.276 36.096C608.276 37.504 608.948 38.592 610.292 39.36C611.636 40.128 613.332 40.768 615.38 41.28C617.492 41.728 619.732 42.208 622.1 42.72C624.532 43.168 626.772 43.84 628.82 44.736C630.932 45.632 632.66 46.944 634.004 48.672C635.348 50.336 636.02 52.576 636.02 55.392C636.02 59.104 634.964 62.272 632.852 64.896C630.804 67.456 627.924 69.408 624.212 70.752C620.5 72.032 616.244 72.672 611.444 72.672Z" fill="white"/>
</svg>
